0
SECTION
2
HEADER
9
$INSUNITS
70
4
9
$ACADVER
1
AC1014
9
$HANDSEED
5
FFFF
0
ENDSEC
0
SECTION
2
TABLES
0
TABLE
2
VPORT
5
8
100
AcDbSymbolTable
0
ENDTAB
0
TABLE
2
LTYPE
5
5
100
AcDbSymbolTable
0
LTYPE
5
14
100
AcDbSymbolTableRecord
100
AcDbLinetypeTableRecord
2
BYBLOCK
70
0
0
LTYPE
5
15
100
AcDbSymbolTableRecord
100
AcDbLinetypeTableRecord
2
BYLAYER
70
0
0
LTYPE
5
16
100
AcDbSymbolTableRecord
100
AcDbLinetypeTableRecord
2
DASHED
70
0
3
Dashed __ __ __ __ __ __ __ __ __ __ __ __ __ _
72
65
73
2
40
0.75
49
0.5
74
0
49
-0.25
74
0
0
ENDTAB
0
TABLE
2
LAYER
5
2
100
AcDbSymbolTable
70
2
0
LAYER
5
50
100
AcDbSymbolTableRecord
100
AcDbLayerTableRecord
2
0
70
0
62
7
6
CONTINUOUS
0
ENDTAB
0
TABLE
2
STYLE
5
3
100
AcDbSymbolTable
70
1
0
STYLE
5
11
100
AcDbSymbolTableRecord
100
AcDbTextStyleTableRecord
2
STANDARD
70
0
0
ENDTAB
0
TABLE
2
VIEW
5
6
100
AcDbSymbolTable
70
0
0
ENDTAB
0
TABLE
2
UCS
5
7
100
AcDbSymbolTable
70
0
0
ENDTAB
0
TABLE
2
APPID
5
9
100
AcDbSymbolTable
70
2
0
APPID
5
12
100
AcDbSymbolTableRecord
100
AcDbRegAppTableRecord
2
ACAD
70
0
0
ENDTAB
0
TABLE
2
DIMSTYLE
5
A
100
AcDbSymbolTable
70
1
0
ENDTAB
0
TABLE
2
BLOCK_RECORD
5
1
100
AcDbSymbolTable
70
1
0
BLOCK_RECORD
5
1F
100
AcDbSymbolTableRecord
100
AcDbBlockTableRecord
2
*MODEL_SPACE
0
BLOCK_RECORD
5
1B
100
AcDbSymbolTableRecord
100
AcDbBlockTableRecord
2
*PAPER_SPACE
0
ENDTAB
0
ENDSEC
0
SECTION
2
BLOCKS
0
BLOCK
5
20
100
AcDbEntity
100
AcDbBlockBegin
2
*MODEL_SPACE
0
ENDBLK
5
21
100
AcDbEntity
100
AcDbBlockEnd
0
BLOCK
5
1C
100
AcDbEntity
100
AcDbBlockBegin
2
*PAPER_SPACE
0
ENDBLK
5
1D
100
AcDbEntity
100
AcDbBlockEnd
0
ENDSEC
0
SECTION
2
ENTITIES
0
LINE
5
100
100
AcDbEntity
8
0
100
AcDbLine
10
4.7101215593211521
20
88.710413878569696
30
8.9269424782611992e-30
11
2.3415258590048085
21
60.473883804453848
31
-1.5777218104420236e-29
0
LINE
5
101
100
AcDbEntity
8
0
100
AcDbLine
10
2.3415258590048085
20
60.473883804453848
30
-1.5777218104420236e-29
11
2.3536955523347323
21
54.68039308701443
31
-1.1832913578315177e-29
0
LINE
5
102
100
AcDbEntity
8
0
100
AcDbLine
10
2.726366172240668
20
-16.280321955880041
30
2.3021619507877478e-15
11
2.7344824892789168
21
-16.280356886455273
31
0
0
LINE
5
103
100
AcDbEntity
8
0
100
AcDbLine
10
4.4849351584736281
20
-14.280180387938262
30
2.1746963051296646e-15
11
86.63078171752602
21
-14.271898097600564
31
1.0347870540273309e-14
0
LINE
5
104
100
AcDbEntity
8
0
100
AcDbLine
10
-4.145706106153229
20
52.628448793941004
30
5.1171745525903719e-19
11
0.52373309465634788
21
16.428847119522196
31
8.7233553572325638e-18
0
LINE
5
105
100
AcDbEntity
8
0
100
AcDbLine
10
0.52373309465634788
20
16.428847119522196
30
8.7233553572325638e-18
11
4.420951007219756
21
-13.784146348462079
31
2.1397099705278685e-15
0
LINE
5
106
100
AcDbEntity
8
0
100
AcDbLine
10
-4.145706106153229
20
52.628448793941004
30
5.1171745525903719e-19
11
95.012087569515046
21
52.630373572047958
31
-4.0270651687952299e-19
0
LINE
5
107
100
AcDbEntity
8
0
100
AcDbLine
10
95.012087569515046
20
52.630373572047958
30
-4.0270651687952299e-19
11
90.477160469733761
21
16.434270333054695
31
5.3429002184878758e-17
0
LINE
5
108
100
AcDbEntity
8
0
100
AcDbLine
10
6.6027914740222009
20
88.714615030198161
30
8.9133807340270625e-30
11
6.603491948070138
21
52.628657449461855
31
8.9133807340270625e-30
0
LINE
5
109
100
AcDbEntity
8
0
100
AcDbLine
10
84.818775296742416
20
88.706212726941231
30
1.5777218104420236e-29
11
84.81947557821951
21
52.630175720566157
31
1.5777218104420236e-29
0
LINE
5
110
100
AcDbEntity
8
0
100
AcDbLine
10
86.818770884318781
20
86.71041387856971
30
1.5777218104420236e-29
11
4.7101215593211521
21
86.71041387856971
31
8.9269424782611992e-30
0
LINE
5
111
100
AcDbEntity
8
0
100
AcDbLine
10
4.420951007219756
20
-13.784146348462079
30
2.1397099705278685e-15
11
4.4849351584736281
21
-14.280180387938262
31
2.1746963051296646e-15
0
SPLINE
5
112
100
AcDbEntity
8
0
100
AcDbSpline
70
0
71
3
72
29
73
25
74
0
42
0.000000001
43
0.0000000001
44
0.0000000001
40
0.010987591966477571
40
0.010987591966477571
40
0.010987591966477571
40
0.010987591966477571
40
0.01098983421673622
40
0.01098983421673622
40
0.01098983421673622
40
1.5233720845759489
40
1.5233720845759489
40
1.5233720845759489
40
2.2795632097555552
40
2.2795632097555552
40
2.2795632097555552
40
2.657658772345358
40
2.657658772345358
40
2.657658772345358
40
2.8467065536402596
40
2.8467065536402596
40
2.8467065536402596
40
2.9742053012439613
40
2.9742053012439613
40
2.9742053012439613
40
3.0357543349351612
40
3.0357543349351612
40
3.0357543349351612
40
3.108236745770971
40
3.108236745770971
40
3.108236745770971
40
3.108236745770971
10
90.477160469733789
20
16.434270333054691
30
1.1182536747509664e-14
10
90.477159551295927
20
16.434263001107404
30
1.1182536548207237e-14
10
90.477158632858092
20
16.43425566916012
30
1.1182536348904806e-14
10
90.477157714420258
20
16.434248337212832
30
1.1182536149602378e-14
10
89.857677756904408
20
11.488900737081419
30
1.1048108043451987e-14
10
89.238197731820833
20
6.5435526034632279
30
1.0913679922639042e-14
10
88.618717632076908
20
1.5982038803481167
30
1.0779251785624389e-14
10
88.308977582204946
20
-0.87447048120943893
30
1.0712037717117062e-14
10
87.999237513687348
20
-3.3471449899847974
30
1.0644823644563532e-14
10
87.689497425538562
20
-5.8198196537610141
30
1.0577609567749926e-14
10
87.534627381464162
20
-7.0561569856491211
30
1.0544002529343122e-14
10
87.379757332480381
20
-8.2924943562999918
30
1.0510395489870952e-14
10
87.224887278461949
20
-9.5288317667028721
30
1.0476788449306231e-14
10
87.147452251452719
20
-10.147000471904313
30
1.0459984929023871e-14
10
87.070017223185019
20
-10.765169187041979
30
1.0443181408468419e-14
10
86.992582193642392
20
-11.383337912246178
30
1.0426377887636297e-14
10
86.940357992862488
20
-11.800247001215411
30
1.0415045155526175e-14
10
86.888133791502611
20
-12.217156094763958
30
1.0403712423290194e-14
10
86.835909589557687
20
-12.63406519293178
30
1.0392379690927257e-14
10
86.810698760232569
20
-12.835324833607295
30
1.0386908902083211e-14
10
86.787850484971869
20
-13.017724056159476
30
1.0381950791114709e-14
10
86.758404201537132
20
-13.252795594114549
30
1.0375560902196907e-14
10
86.723722865402266
20
-13.529658887970617
30
1.0368035933469385e-14
10
86.679500262990018
20
-13.882744566531333
30
1.0358440720222098e-14
10
86.63078171752602
20
-14.271898097600564
30
1.0347870540273309e-14
0
ENDSEC
0
SECTION
2
OBJECTS
0
DICTIONARY
5
C
100
AcDbDictionary
3
ACAD_GROUP
350
D
3
ACAD_MLINESTYLE
350
17
0
DICTIONARY
5
D
100
AcDbDictionary
0
DICTIONARY
5
1A
330
C
100
AcDbDictionary
0
DICTIONARY
5
17
100
AcDbDictionary
0
ENDSEC
0
EOF
