%TF.GenerationSoftware,KiCad,Pcbnew,8.0.4*%
%TF.CreationDate,2024-08-19T15:35:32+02:00*%
%TF.ProjectId,LogicBoard 3GE,4c6f6769-6342-46f6-9172-64203347452e,rev?*%
%TF.SameCoordinates,Original*%
%TF.FileFunction,Copper,L3,Inr*%
%TF.FilePolarity,Positive*%
%FSLAX46Y46*%
G04 Gerber Fmt 4.6, Leading zero omitted, Abs format (unit mm)*
G04 Created by KiCad (PCBNEW 8.0.4) date 2024-08-19 15:35:32*
%MOMM*%
%LPD*%
G01*
G04 APERTURE LIST*
G04 Aperture macros list*
%AMRoundRect*
0 Rectangle with rounded corners*
0 $1 Rounding radius*
0 $2 $3 $4 $5 $6 $7 $8 $9 X,Y pos of 4 corners*
0 Add a 4 corners polygon primitive as box body*
4,1,4,$2,$3,$4,$5,$6,$7,$8,$9,$2,$3,0*
0 Add four circle primitives for the rounded corners*
1,1,$1+$1,$2,$3*
1,1,$1+$1,$4,$5*
1,1,$1+$1,$6,$7*
1,1,$1+$1,$8,$9*
0 Add four rect primitives between the rounded corners*
20,1,$1+$1,$2,$3,$4,$5,0*
20,1,$1+$1,$4,$5,$6,$7,0*
20,1,$1+$1,$6,$7,$8,$9,0*
20,1,$1+$1,$8,$9,$2,$3,0*%
G04 Aperture macros list end*
%TA.AperFunction,ComponentPad*%
%ADD10C,7.000000*%
%TD*%
%TA.AperFunction,ComponentPad*%
%ADD11O,1.600000X1.600000*%
%TD*%
%TA.AperFunction,ComponentPad*%
%ADD12R,1.600000X1.600000*%
%TD*%
%TA.AperFunction,ComponentPad*%
%ADD13RoundRect,0.250000X1.800000X-1.330000X1.800000X1.330000X-1.800000X1.330000X-1.800000X-1.330000X0*%
%TD*%
%TA.AperFunction,ComponentPad*%
%ADD14O,4.100000X3.160000*%
%TD*%
%TA.AperFunction,ComponentPad*%
%ADD15C,1.800000*%
%TD*%
%TA.AperFunction,ComponentPad*%
%ADD16RoundRect,0.250000X-0.600000X-0.725000X0.600000X-0.725000X0.600000X0.725000X-0.600000X0.725000X0*%
%TD*%
%TA.AperFunction,ComponentPad*%
%ADD17O,1.700000X1.950000*%
%TD*%
%TA.AperFunction,ComponentPad*%
%ADD18C,2.340000*%
%TD*%
%TA.AperFunction,ComponentPad*%
%ADD19C,3.216000*%
%TD*%
%TA.AperFunction,ComponentPad*%
%ADD20O,2.730000X1.230000*%
%TD*%
%TA.AperFunction,ComponentPad*%
%ADD21C,1.408000*%
%TD*%
%TA.AperFunction,ComponentPad*%
%ADD22R,1.408000X1.408000*%
%TD*%
%TA.AperFunction,ComponentPad*%
%ADD23RoundRect,0.250000X-0.845000X0.620000X-0.845000X-0.620000X0.845000X-0.620000X0.845000X0.620000X0*%
%TD*%
%TA.AperFunction,ComponentPad*%
%ADD24O,2.190000X1.740000*%
%TD*%
%TA.AperFunction,ComponentPad*%
%ADD25RoundRect,0.250000X0.845000X-0.620000X0.845000X0.620000X-0.845000X0.620000X-0.845000X-0.620000X0*%
%TD*%
%TA.AperFunction,ComponentPad*%
%ADD26C,2.600000*%
%TD*%
%TA.AperFunction,ViaPad*%
%ADD27C,0.800000*%
%TD*%
%TA.AperFunction,Conductor*%
%ADD28C,0.300000*%
%TD*%
G04 APERTURE END LIST*
D10*
%TO.N,GND*%
%TO.C,MNT2*%
X146530000Y-162880000D03*
%TD*%
D11*
%TO.N,+5V*%
%TO.C,IC201*%
X140440000Y-138510000D03*
X137900000Y-138510000D03*
%TO.N,unconnected-(IC201-NC-Pad26)*%
X135360000Y-138510000D03*
%TO.N,/A8*%
X132820000Y-138510000D03*
%TO.N,/A9*%
X130280000Y-138510000D03*
%TO.N,/A11*%
X127740000Y-138510000D03*
%TO.N,/~{ROMOE}*%
X125200000Y-138510000D03*
%TO.N,/A10*%
X122660000Y-138510000D03*
%TO.N,/~{ROMS}*%
X120120000Y-138510000D03*
%TO.N,/D7*%
X117580000Y-138510000D03*
%TO.N,/D6*%
X115040000Y-138510000D03*
%TO.N,/D5*%
X112500000Y-138510000D03*
%TO.N,/D4*%
X109960000Y-138510000D03*
%TO.N,/D3*%
X107420000Y-138510000D03*
%TO.N,GND*%
X107420000Y-123270000D03*
%TO.N,/D2*%
X109960000Y-123270000D03*
%TO.N,/D1*%
X112500000Y-123270000D03*
%TO.N,/D0*%
X115040000Y-123270000D03*
%TO.N,/A0*%
X117580000Y-123270000D03*
%TO.N,/A1*%
X120120000Y-123270000D03*
%TO.N,/A2*%
X122660000Y-123270000D03*
%TO.N,/A3*%
X125200000Y-123270000D03*
%TO.N,/A4*%
X127740000Y-123270000D03*
%TO.N,/A5*%
X130280000Y-123270000D03*
%TO.N,/A6*%
X132820000Y-123270000D03*
%TO.N,/A7*%
X135360000Y-123270000D03*
%TO.N,/A12*%
X137900000Y-123270000D03*
D12*
%TO.N,+5V*%
X140440000Y-123270000D03*
%TD*%
D13*
%TO.N,-5VA*%
%TO.C,J204*%
X55455000Y-58310000D03*
D14*
%TO.N,GND*%
X55455000Y-54350000D03*
%TO.N,+5V*%
X55455000Y-50390000D03*
%TO.N,-12VA*%
X55455000Y-46430000D03*
%TD*%
D10*
%TO.N,GND*%
%TO.C,MNT4*%
X53550000Y-162790000D03*
%TD*%
D15*
%TO.N,/~{HALT}*%
%TO.C,J201*%
X123270000Y-39880000D03*
%TO.N,+5V*%
X123270000Y-43840000D03*
%TO.N,/A7*%
X120730000Y-39880000D03*
%TO.N,+5V*%
X120730000Y-43840000D03*
%TO.N,/A6*%
X118190000Y-39880000D03*
%TO.N,/A8*%
X118190000Y-43840000D03*
%TO.N,/A5*%
X115650000Y-39880000D03*
%TO.N,/A9*%
X115650000Y-43840000D03*
%TO.N,/A4*%
X113110000Y-39880000D03*
%TO.N,/A11*%
X113110000Y-43840000D03*
%TO.N,/A3*%
X110570000Y-39880000D03*
%TO.N,/~{E}*%
X110570000Y-43840000D03*
%TO.N,/A2*%
X108030000Y-39880000D03*
%TO.N,/A10*%
X108030000Y-43840000D03*
%TO.N,/A1*%
X105490000Y-39880000D03*
%TO.N,/A15*%
X105490000Y-43840000D03*
%TO.N,/A0*%
X102950000Y-39880000D03*
%TO.N,/D7*%
X102950000Y-43840000D03*
%TO.N,/D0*%
X100410000Y-39880000D03*
%TO.N,/D6*%
X100410000Y-43840000D03*
%TO.N,/D1*%
X97870000Y-39880000D03*
%TO.N,/D5*%
X97870000Y-43840000D03*
%TO.N,/D2*%
X95330000Y-39880000D03*
%TO.N,/D4*%
X95330000Y-43840000D03*
%TO.N,GND*%
X92790000Y-39880000D03*
%TO.N,/D3*%
X92790000Y-43840000D03*
%TO.N,GND*%
X90250000Y-39880000D03*
X90250000Y-43840000D03*
%TO.N,/A12*%
X87710000Y-39880000D03*
%TO.N,/R~{W}*%
X87710000Y-43840000D03*
%TO.N,/A13*%
X85170000Y-39880000D03*
%TO.N,/~{CARTS}*%
X85170000Y-43840000D03*
%TO.N,/A14*%
X82630000Y-39880000D03*
%TO.N,/~{NMI}*%
X82630000Y-43840000D03*
%TO.N,/PB6*%
X80090000Y-39880000D03*
%TO.N,/~{IRQ}*%
X80090000Y-43840000D03*
%TD*%
D16*
%TO.N,GND*%
%TO.C,J304*%
X96720000Y-161390000D03*
D17*
%TO.N,/AUDIO*%
X99220000Y-161390000D03*
%TO.N,/CH(A+B+C)+DIGITAL_AUDIO*%
X101720000Y-161390000D03*
%TD*%
D18*
%TO.N,-5VA*%
%TO.C,R335*%
X56720000Y-113210000D03*
%TO.N,/X_OFFSET*%
X51720000Y-108210000D03*
%TO.N,+5V*%
X56720000Y-103210000D03*
%TD*%
D10*
%TO.N,GND*%
%TO.C,MNT1*%
X53750000Y-32590000D03*
%TD*%
D12*
%TO.N,/CHC*%
%TO.C,IC208*%
X140440000Y-55280000D03*
D11*
%TO.N,unconnected-(IC208-TEST1-Pad2)*%
X137900000Y-55280000D03*
%TO.N,+5V*%
X135360000Y-55280000D03*
%TO.N,/CHB*%
X132820000Y-55280000D03*
%TO.N,/CHA*%
X130280000Y-55280000D03*
%TO.N,GND*%
X127740000Y-55280000D03*
%TO.N,/SW7*%
X125200000Y-55280000D03*
%TO.N,/SW6*%
X122660000Y-55280000D03*
%TO.N,/SW5*%
X120120000Y-55280000D03*
%TO.N,/SW4*%
X117580000Y-55280000D03*
%TO.N,/SW3*%
X115040000Y-55280000D03*
%TO.N,/SW2*%
X112500000Y-55280000D03*
%TO.N,/SW1*%
X109960000Y-55280000D03*
%TO.N,/SW0*%
X107420000Y-55280000D03*
%TO.N,/E*%
X107420000Y-70520000D03*
%TO.N,/~{RESET}*%
X109960000Y-70520000D03*
%TO.N,/BC2*%
X112500000Y-70520000D03*
%TO.N,/BDIR*%
X115040000Y-70520000D03*
%TO.N,/BC2*%
X117580000Y-70520000D03*
%TO.N,/BC1*%
X120120000Y-70520000D03*
%TO.N,/P7*%
X122660000Y-70520000D03*
%TO.N,/P6*%
X125200000Y-70520000D03*
%TO.N,/P5*%
X127740000Y-70520000D03*
%TO.N,/P4*%
X130280000Y-70520000D03*
%TO.N,/P3*%
X132820000Y-70520000D03*
%TO.N,/P2*%
X135360000Y-70520000D03*
%TO.N,/P1*%
X137900000Y-70520000D03*
%TO.N,/P0*%
X140440000Y-70520000D03*
%TD*%
D19*
%TO.N,GND*%
%TO.C,J202*%
X81450000Y-160670000D03*
X66950000Y-160670000D03*
D20*
X74200000Y-161570000D03*
D21*
%TO.N,/J202_B1*%
X70200000Y-155270000D03*
%TO.N,/J202_Y*%
X72200000Y-155270000D03*
%TO.N,/J202_B2*%
X78200000Y-155270000D03*
%TO.N,+5V*%
X70200000Y-157770000D03*
%TO.N,/J202_B3*%
X74200000Y-155270000D03*
%TO.N,GND*%
X76200000Y-155270000D03*
%TO.N,/J202_B4*%
X78200000Y-157770000D03*
%TO.N,-5VA*%
X73500000Y-157770000D03*
D22*
%TO.N,/J202_X*%
X75500000Y-157770000D03*
%TD*%
D10*
%TO.N,GND*%
%TO.C,MNT3*%
X145730000Y-32830000D03*
%TD*%
D18*
%TO.N,-5VA*%
%TO.C,R333*%
X56840000Y-96380000D03*
%TO.N,/Y_OFFSET*%
X51840000Y-91380000D03*
%TO.N,+5V*%
X56840000Y-86380000D03*
%TD*%
D23*
%TO.N,GND*%
%TO.C,J301*%
X54370000Y-128670000D03*
D24*
%TO.N,/Y*%
X54370000Y-131210000D03*
%TO.N,/X*%
X54370000Y-133750000D03*
%TO.N,/Z*%
X54370000Y-136290000D03*
%TD*%
D18*
%TO.N,Net-(R301-Pad1)*%
%TO.C,R302*%
X56870000Y-79210000D03*
%TO.N,/IOUT*%
X51870000Y-74210000D03*
X56870000Y-69210000D03*
%TD*%
D25*
%TO.N,/AUDIO*%
%TO.C,J302*%
X54550000Y-145870000D03*
D24*
%TO.N,unconnected-(J302-Pin_2-Pad2)*%
X54550000Y-143330000D03*
%TD*%
D22*
%TO.N,/J203_X*%
%TO.C,J203*%
X122800000Y-157960000D03*
D21*
%TO.N,-5VA*%
X120800000Y-157960000D03*
%TO.N,/J203_B4*%
X125500000Y-157960000D03*
%TO.N,GND*%
X123500000Y-155460000D03*
%TO.N,/J203_B3*%
X121500000Y-155460000D03*
%TO.N,+5V*%
X117500000Y-157960000D03*
%TO.N,/J203_B2*%
X125500000Y-155460000D03*
%TO.N,/J203_Y*%
X119500000Y-155460000D03*
%TO.N,/J203_B1*%
X117500000Y-155460000D03*
D20*
%TO.N,GND*%
X121500000Y-161760000D03*
D19*
X114250000Y-160860000D03*
X128750000Y-160860000D03*
%TD*%
D26*
%TO.N,/SWITCH_RESET*%
%TO.C,SW201*%
X146580000Y-47660000D03*
X146580000Y-42580000D03*
%TD*%
D12*
%TO.N,GND*%
%TO.C,IC207*%
X140440000Y-78030000D03*
D11*
%TO.N,/P0*%
X137900000Y-78030000D03*
%TO.N,/P1*%
X135360000Y-78030000D03*
%TO.N,/P2*%
X132820000Y-78030000D03*
%TO.N,/P3*%
X130280000Y-78030000D03*
%TO.N,/P4*%
X127740000Y-78030000D03*
%TO.N,/P5*%
X125200000Y-78030000D03*
%TO.N,/P6*%
X122660000Y-78030000D03*
%TO.N,/P7*%
X120120000Y-78030000D03*
%TO.N,/SH*%
X117580000Y-78030000D03*
%TO.N,/SEL0*%
X115040000Y-78030000D03*
%TO.N,/SEL1*%
X112500000Y-78030000D03*
%TO.N,/BC1*%
X109960000Y-78030000D03*
%TO.N,/BDIR*%
X107420000Y-78030000D03*
%TO.N,/COMPARE*%
X104880000Y-78030000D03*
%TO.N,/PB6*%
X102340000Y-78030000D03*
%TO.N,/~{RAMP}*%
X99800000Y-78030000D03*
%TO.N,unconnected-(IC207-CB1-Pad18)*%
X97260000Y-78030000D03*
%TO.N,/~{BLANK}*%
X94720000Y-78030000D03*
%TO.N,+5V*%
X92180000Y-78030000D03*
%TO.N,/~{IRQ}*%
X92180000Y-93270000D03*
%TO.N,/R~{W}*%
X94720000Y-93270000D03*
%TO.N,/~{IOS}*%
X97260000Y-93270000D03*
%TO.N,/A12*%
X99800000Y-93270000D03*
%TO.N,/E*%
X102340000Y-93270000D03*
%TO.N,/D7*%
X104880000Y-93270000D03*
%TO.N,/D6*%
X107420000Y-93270000D03*
%TO.N,/D5*%
X109960000Y-93270000D03*
%TO.N,/D4*%
X112500000Y-93270000D03*
%TO.N,/D3*%
X115040000Y-93270000D03*
%TO.N,/D2*%
X117580000Y-93270000D03*
%TO.N,/D1*%
X120120000Y-93270000D03*
%TO.N,/D0*%
X122660000Y-93270000D03*
%TO.N,/~{RESET}*%
X125200000Y-93270000D03*
%TO.N,/A3*%
X127740000Y-93270000D03*
%TO.N,/A2*%
X130280000Y-93270000D03*
%TO.N,/A1*%
X132820000Y-93270000D03*
%TO.N,/A0*%
X135360000Y-93270000D03*
%TO.N,/~{ZERO}*%
X137900000Y-93270000D03*
%TO.N,/SW7*%
X140440000Y-93270000D03*
%TD*%
%TO.N,+5V*%
%TO.C,IC204*%
X78670000Y-144070000D03*
%TO.N,/A7*%
X78670000Y-141530000D03*
%TO.N,/A8*%
X78670000Y-138990000D03*
%TO.N,/A9*%
X78670000Y-136450000D03*
%TO.N,/D0*%
X78670000Y-133910000D03*
%TO.N,/D1*%
X78670000Y-131370000D03*
%TO.N,/D2*%
X78670000Y-128830000D03*
%TO.N,/D3*%
X78670000Y-126290000D03*
%TO.N,/RAM_R~{W}*%
X78670000Y-123750000D03*
%TO.N,GND*%
X86290000Y-123750000D03*
%TO.N,/~{RAMS}*%
X86290000Y-126290000D03*
%TO.N,/A2*%
X86290000Y-128830000D03*
%TO.N,/A1*%
X86290000Y-131370000D03*
%TO.N,/A0*%
X86290000Y-133910000D03*
%TO.N,/A3*%
X86290000Y-136450000D03*
%TO.N,/A4*%
X86290000Y-138990000D03*
%TO.N,/A5*%
X86290000Y-141530000D03*
D12*
%TO.N,/A6*%
X86290000Y-144070000D03*
%TD*%
D11*
%TO.N,+5V*%
%TO.C,IC205*%
X91170000Y-144070000D03*
%TO.N,/A7*%
X91170000Y-141530000D03*
%TO.N,/A8*%
X91170000Y-138990000D03*
%TO.N,/A9*%
X91170000Y-136450000D03*
%TO.N,/D4*%
X91170000Y-133910000D03*
%TO.N,/D5*%
X91170000Y-131370000D03*
%TO.N,/D6*%
X91170000Y-128830000D03*
%TO.N,/D7*%
X91170000Y-126290000D03*
%TO.N,/RAM_R~{W}*%
X91170000Y-123750000D03*
%TO.N,GND*%
X98790000Y-123750000D03*
%TO.N,/~{RAMS}*%
X98790000Y-126290000D03*
%TO.N,/A2*%
X98790000Y-128830000D03*
%TO.N,/A1*%
X98790000Y-131370000D03*
%TO.N,/A0*%
X98790000Y-133910000D03*
%TO.N,/A3*%
X98790000Y-136450000D03*
%TO.N,/A4*%
X98790000Y-138990000D03*
%TO.N,/A5*%
X98790000Y-141530000D03*
D12*
%TO.N,/A6*%
X98790000Y-144070000D03*
%TD*%
%TO.N,GND*%
%TO.C,IC206*%
X140440000Y-100780000D03*
D11*
%TO.N,/~{NMI}*%
X137900000Y-100780000D03*
%TO.N,/~{IRQ}*%
X135360000Y-100780000D03*
%TO.N,/SW3*%
X132820000Y-100780000D03*
%TO.N,unconnected-(IC206-BS-Pad5)*%
X130280000Y-100780000D03*
%TO.N,unconnected-(IC206-BA-Pad6)*%
X127740000Y-100780000D03*
%TO.N,+5V*%
X125200000Y-100780000D03*
%TO.N,/CPU_A0*%
X122660000Y-100780000D03*
%TO.N,/CPU_A1*%
X120120000Y-100780000D03*
%TO.N,/A2*%
X117580000Y-100780000D03*
%TO.N,/A3*%
X115040000Y-100780000D03*
%TO.N,/A4*%
X112500000Y-100780000D03*
%TO.N,/A5*%
X109960000Y-100780000D03*
%TO.N,/A6*%
X107420000Y-100780000D03*
%TO.N,/A7*%
X104880000Y-100780000D03*
%TO.N,/A8*%
X102340000Y-100780000D03*
%TO.N,/A9*%
X99800000Y-100780000D03*
%TO.N,/A10*%
X97260000Y-100780000D03*
%TO.N,/A11*%
X94720000Y-100780000D03*
%TO.N,/A12*%
X92180000Y-100780000D03*
%TO.N,/A13*%
X92180000Y-116020000D03*
%TO.N,/A14*%
X94720000Y-116020000D03*
%TO.N,/A15*%
X97260000Y-116020000D03*
%TO.N,/D7*%
X99800000Y-116020000D03*
%TO.N,/D6*%
X102340000Y-116020000D03*
%TO.N,/D5*%
X104880000Y-116020000D03*
%TO.N,/D4*%
X107420000Y-116020000D03*
%TO.N,/D3*%
X109960000Y-116020000D03*
%TO.N,/D2*%
X112500000Y-116020000D03*
%TO.N,/D1*%
X115040000Y-116020000D03*
%TO.N,/D0*%
X117580000Y-116020000D03*
%TO.N,/CPU_R~{W}*%
X120120000Y-116020000D03*
%TO.N,Net-(IC206-~{DMA{slash}BREQ})*%
X122660000Y-116020000D03*
%TO.N,/CPU_E*%
X125200000Y-116020000D03*
%TO.N,unconnected-(IC206-Q-Pad35)*%
X127740000Y-116020000D03*
%TO.N,Net-(IC206-MRDY)*%
X130280000Y-116020000D03*
%TO.N,/~{RESET}*%
X132820000Y-116020000D03*
%TO.N,/EXTAL*%
X135360000Y-116020000D03*
%TO.N,/XTAL*%
X137900000Y-116020000D03*
%TO.N,/~{HALT}*%
X140440000Y-116020000D03*
%TD*%
D27*
%TO.N,GND*%
X134450000Y-46350000D03*
X139870000Y-114220000D03*
X136580000Y-114230000D03*
X135200000Y-114230000D03*
X135270000Y-158230000D03*
X135250000Y-157370000D03*
X83930000Y-67170000D03*
X89900000Y-63900000D03*
%TO.N,/SW4*%
X88130000Y-63910000D03*
%TO.N,/P7*%
X86800000Y-61810000D03*
%TO.N,GND*%
X126890000Y-47320000D03*
X75450000Y-62600000D03*
X74510000Y-62590000D03*
X75410000Y-61660000D03*
X74510000Y-61660000D03*
X67210000Y-41860000D03*
X65090000Y-41860000D03*
X68320000Y-41860000D03*
X66100000Y-41860000D03*
X68290000Y-40680000D03*
X67180000Y-40680000D03*
X66070000Y-40680000D03*
X65060000Y-40680000D03*
%TO.N,/X*%
X87583800Y-127466000D03*
%TO.N,/Y*%
X80855700Y-107205000D03*
%TO.N,Net-(IC305-Pad9)*%
X78726900Y-96272100D03*
X65756600Y-96210000D03*
%TO.N,Net-(IC304-Pad7)*%
X69217900Y-125801000D03*
X96677700Y-85458400D03*
%TO.N,/X3*%
X69126300Y-145880000D03*
X94962500Y-152717000D03*
%TO.N,/SW4*%
X64998500Y-152719000D03*
X117088000Y-61419100D03*
%TO.N,/SW1*%
X109952000Y-61858800D03*
X121709000Y-66961900D03*
X130434000Y-63070900D03*
X141194000Y-91115700D03*
X133718000Y-152344000D03*
%TO.N,/SW5*%
X111448000Y-76266200D03*
X119352000Y-68918400D03*
%TO.N,/SW6*%
X88150000Y-157270000D03*
%TO.N,/SW2*%
X126697000Y-68982800D03*
%TO.N,/P2*%
X75553600Y-51601800D03*
%TO.N,/~{BLANK}*%
X92773900Y-79539300D03*
X90030200Y-92415300D03*
X82797600Y-118617000D03*
%TO.N,/~{ZERO}*%
X133194000Y-90896200D03*
X105155000Y-86473100D03*
X102066000Y-85040700D03*
X94760700Y-80193000D03*
X93887200Y-82111000D03*
X84928400Y-84616700D03*
X84574800Y-92751100D03*
%TO.N,/~{RAMP}*%
X89871800Y-110252000D03*
X91356300Y-98589500D03*
X97235600Y-90942900D03*
%TO.N,/SW7*%
X141551000Y-130302000D03*
X88654000Y-159699000D03*
X130346000Y-66509100D03*
%TO.N,/PB6*%
X100890000Y-52851200D03*
%TO.N,/SEL0*%
X100690000Y-79713100D03*
X97793300Y-118369000D03*
X91248600Y-121193000D03*
X88153400Y-132522000D03*
X69227500Y-136945000D03*
%TO.N,/P4*%
X77361300Y-36663000D03*
X134475000Y-52062400D03*
%TO.N,/P1*%
X78350100Y-61282000D03*
%TO.N,/SH*%
X91221200Y-108469000D03*
X112057000Y-96259100D03*
%TO.N,/SEL1*%
X107102000Y-108210000D03*
X91561700Y-113463000D03*
X89660300Y-114710000D03*
X74845700Y-125685000D03*
%TO.N,/P5*%
X80958700Y-51181200D03*
%TO.N,/P0*%
X72261400Y-53173700D03*
X74020600Y-36834200D03*
%TO.N,/P6*%
X89607600Y-67377600D03*
X80985600Y-53621400D03*
%TO.N,/P3*%
X71561500Y-52222900D03*
X141300000Y-58754500D03*
%TO.N,Net-(IC206-~{DMA{slash}BREQ})*%
X140533000Y-118951000D03*
%TO.N,/SW3*%
X128199000Y-91098300D03*
%TO.N,/~{IRQ}*%
X73292600Y-69573100D03*
X89157700Y-89100600D03*
%TO.N,/CPU_E*%
X95044400Y-107387000D03*
X113517000Y-112059000D03*
X115409000Y-109204000D03*
%TO.N,/CPU_R~{W}*%
X110542000Y-108009000D03*
X97257500Y-103284000D03*
X84600000Y-88648700D03*
%TO.N,/~{NMI}*%
X142669000Y-67990200D03*
X85950000Y-34390000D03*
%TO.N,/RAM_R~{W}*%
X91433900Y-89872900D03*
%TO.N,/~{CARTS}*%
X91361500Y-62194100D03*
%TO.N,/R~{W}*%
X88342000Y-50045400D03*
%TO.N,/A14*%
X92400300Y-53205400D03*
%TO.N,/~{A11&E}*%
X92271100Y-60356300D03*
X92353500Y-66739900D03*
%TO.N,/A13*%
X92776200Y-59044500D03*
X98712700Y-66678700D03*
%TO.N,/E*%
X99026900Y-61514500D03*
X84595300Y-86245200D03*
%TO.N,/A15*%
X97187700Y-67149100D03*
X94438900Y-54130600D03*
%TO.N,/~{ROMS}*%
X149440000Y-126408000D03*
X90824200Y-61269600D03*
X94752400Y-66682000D03*
X146776000Y-40030700D03*
X81965400Y-32920600D03*
%TO.N,/A11*%
X97773300Y-99297300D03*
X126236000Y-111062000D03*
X95168100Y-60016900D03*
X102876000Y-65762400D03*
X111630000Y-53061900D03*
%TO.N,/A0*%
X118318000Y-126311000D03*
X92987500Y-135420000D03*
%TO.N,/D6*%
X109384000Y-121248000D03*
X106783000Y-60038000D03*
%TO.N,/A6*%
X120469000Y-47336700D03*
X134202000Y-112093000D03*
%TO.N,/D0*%
X115971000Y-88818700D03*
X115971000Y-79403900D03*
X117906000Y-73293400D03*
X117943000Y-64583800D03*
X115972000Y-60174700D03*
X102112000Y-46802200D03*
%TO.N,/D2*%
X93882600Y-42206400D03*
X87402500Y-85961200D03*
X94918600Y-82173800D03*
X95366800Y-84137300D03*
%TO.N,/A2*%
X96461200Y-128032000D03*
X93522200Y-127884000D03*
X89265900Y-127978000D03*
%TO.N,/A3*%
X118433000Y-47392500D03*
%TO.N,/A4*%
X101827000Y-133600000D03*
X111106000Y-56520700D03*
%TO.N,/A8*%
X93882600Y-147329000D03*
X105962000Y-91425100D03*
X109606000Y-57727700D03*
X110390000Y-47460200D03*
%TO.N,/A10*%
X120092000Y-121163000D03*
X121425000Y-124951000D03*
X108132000Y-103267000D03*
%TO.N,/D1*%
X91433900Y-118693000D03*
X114086000Y-59250900D03*
%TO.N,/A1*%
X122927000Y-41900300D03*
%TO.N,/D4*%
X111634000Y-74093800D03*
X105631000Y-75645400D03*
%TO.N,/D3*%
X104929000Y-84716600D03*
X102999000Y-74534900D03*
%TO.N,/A7*%
X124576000Y-69044500D03*
X111573000Y-86754200D03*
%TO.N,/A9*%
X102361000Y-75550500D03*
X116110000Y-63569700D03*
%TO.N,/~{ROMOE}*%
X92008800Y-61400200D03*
X87464500Y-84734100D03*
X87737500Y-87529300D03*
X88082100Y-99146200D03*
X90184900Y-104541000D03*
X94365500Y-111760000D03*
X115426000Y-112652000D03*
%TO.N,/Z*%
X76916500Y-127892000D03*
%TO.N,/CH(A+B+C)*%
X138644000Y-56644700D03*
X100828000Y-144768000D03*
%TO.N,/IOUT*%
X72541700Y-49439700D03*
X67573600Y-122653000D03*
%TO.N,/VOUT*%
X73477600Y-126174000D03*
X78059000Y-94853100D03*
%TO.N,/IC303D_X*%
X81179000Y-111540000D03*
X71057700Y-99417200D03*
X78973400Y-97956800D03*
%TO.N,/IC303D_FB*%
X75213500Y-112067000D03*
X81104500Y-112870000D03*
%TO.N,/IC303A_FB*%
X80506600Y-100815000D03*
X79239900Y-88600900D03*
%TO.N,/POT0*%
X74100500Y-146680000D03*
X124680000Y-149313000D03*
%TO.N,/POT1*%
X74244600Y-142050000D03*
X113704000Y-145166000D03*
%TO.N,/POTX*%
X72997300Y-140509000D03*
X69292200Y-122964000D03*
%TO.N,/X0*%
X70333400Y-110400000D03*
X68404900Y-141945000D03*
%TO.N,/J203_X*%
X131707000Y-153986000D03*
%TO.N,/J202_X*%
X81965400Y-154368000D03*
%TO.N,/~{RESET}*%
X122543000Y-67883800D03*
%TO.N,/J202_B3*%
X84890300Y-157597000D03*
%TO.N,/J203_B4*%
X113745000Y-157434000D03*
%TO.N,/XTAL*%
X140255000Y-110047000D03*
%TO.N,-5VA*%
X70300000Y-136616000D03*
X82090700Y-94787000D03*
X58131000Y-118290000D03*
X80760700Y-91100100D03*
X84791400Y-95893600D03*
X114015000Y-142926000D03*
X115073000Y-143347000D03*
X79117400Y-113160000D03*
X72843700Y-123304000D03*
%TO.N,+5V*%
X91160000Y-73970000D03*
X78920000Y-108140000D03*
X85070000Y-71370000D03*
X93670000Y-149330000D03*
X66867300Y-147169000D03*
X77784800Y-111851000D03*
X99416200Y-54973400D03*
X89653600Y-79407700D03*
X72370500Y-71566100D03*
X79179900Y-91066300D03*
X98980600Y-71439300D03*
X86080000Y-102531000D03*
X86079800Y-79437700D03*
X149440000Y-52412200D03*
X75001000Y-71448200D03*
X133424000Y-47280000D03*
X73325500Y-68571300D03*
X80861800Y-80367900D03*
X66075800Y-79402700D03*
X110939000Y-156702000D03*
X68718000Y-58983900D03*
X63439300Y-156525000D03*
X66736400Y-90034000D03*
X144196000Y-140684000D03*
X113745000Y-52776500D03*
X147088000Y-123757000D03*
X89908200Y-71531900D03*
X147086000Y-119472000D03*
X108801000Y-72614300D03*
X66836400Y-152587000D03*
X66700800Y-129654000D03*
X71898000Y-55207700D03*
X77993000Y-79427700D03*
X82589600Y-57733500D03*
X82131200Y-53049000D03*
X60604900Y-80092300D03*
X86823100Y-56083200D03*
X74704000Y-100330000D03*
%TO.N,GND*%
X88910000Y-119180000D03*
X107230000Y-128500000D03*
X96970000Y-76060000D03*
X89610000Y-84830000D03*
X112580000Y-147630000D03*
X117060000Y-148080000D03*
X70040000Y-114020000D03*
X71430000Y-120270000D03*
X82990000Y-128580000D03*
X74830000Y-122970000D03*
X91100000Y-75770000D03*
X80000000Y-85030000D03*
X70570000Y-108050000D03*
X63640000Y-113770000D03*
X65980000Y-122480000D03*
X63590000Y-118650000D03*
X65610000Y-62600000D03*
X77200000Y-57870000D03*
X91630000Y-54280000D03*
X128160000Y-44760000D03*
X125420000Y-46510000D03*
X130280000Y-46590000D03*
%TD*%
D28*
%TO.N,GND*%
X83930000Y-67170000D02*
X83960000Y-67200000D01*
X86600000Y-67200000D02*
X83930000Y-67170000D01*
X89900000Y-63900000D02*
X86600000Y-67200000D01*
%TO.N,/SW6*%
X88150000Y-157360000D02*
X88190000Y-157320000D01*
X88150000Y-157270000D02*
X88150000Y-157360000D01*
X88240000Y-157270000D02*
X88150000Y-157270000D01*
X89003400Y-156507000D02*
X88240000Y-157270000D01*
X89003400Y-131729000D02*
X89003400Y-156507000D01*
X90652200Y-130080000D02*
X89003400Y-131729000D01*
X91687800Y-130080000D02*
X90652200Y-130080000D01*
X92420000Y-129348000D02*
X91687800Y-130080000D01*
X92420000Y-124944000D02*
X92420000Y-129348000D01*
X98643300Y-118721000D02*
X92420000Y-124944000D01*
X98643300Y-118017000D02*
X98643300Y-118721000D01*
X98510000Y-117884000D02*
X98643300Y-118017000D01*
X98510000Y-115502000D02*
X98510000Y-117884000D01*
X101050000Y-112962000D02*
X98510000Y-115502000D01*
X101050000Y-92440000D02*
X101050000Y-112962000D01*
X113750000Y-79740000D02*
X101050000Y-92440000D01*
X113750000Y-77512200D02*
X113750000Y-79740000D01*
X117119000Y-74143400D02*
X113750000Y-77512200D01*
X118264000Y-74143400D02*
X117119000Y-74143400D01*
X121370000Y-71037800D02*
X118264000Y-74143400D01*
X121370000Y-70002200D02*
X121370000Y-71037800D01*
X122638000Y-68733800D02*
X121370000Y-70002200D01*
X122895000Y-68733800D02*
X122638000Y-68733800D01*
X123460000Y-68168900D02*
X122895000Y-68733800D01*
X123460000Y-56080000D02*
X123460000Y-68168900D01*
X122660000Y-55280000D02*
X123460000Y-56080000D01*
%TO.N,/CPU_R~{W}*%
X95924500Y-99973200D02*
X84600000Y-88648700D01*
X95924500Y-101951000D02*
X95924500Y-99973200D01*
X97257500Y-103284000D02*
X95924500Y-101951000D01*
X111893000Y-108009000D02*
X110542000Y-108009000D01*
X118968000Y-115084000D02*
X111893000Y-108009000D01*
X118968000Y-116020000D02*
X118968000Y-115084000D01*
X120120000Y-116020000D02*
X118968000Y-116020000D01*
%TO.N,/D7*%
X99800000Y-119578000D02*
X99800000Y-116020000D01*
X117580000Y-137358000D02*
X99800000Y-119578000D01*
X117580000Y-138510000D02*
X117580000Y-137358000D01*
%TO.N,-5VA*%
X72843700Y-125606000D02*
X72843700Y-123304000D01*
X70300000Y-128150000D02*
X72843700Y-125606000D01*
X70300000Y-136616000D02*
X70300000Y-128150000D01*
X72843700Y-119434000D02*
X79117400Y-113160000D01*
X72843700Y-123304000D02*
X72843700Y-119434000D01*
%TO.N,+5V*%
X92180000Y-74990000D02*
X92180000Y-78030000D01*
X91160000Y-73970000D02*
X92180000Y-74990000D01*
X56840000Y-83857200D02*
X56840000Y-86380000D01*
X60604900Y-80092300D02*
X56840000Y-83857200D01*
X65386200Y-80092300D02*
X60604900Y-80092300D01*
X66075800Y-79402700D02*
X65386200Y-80092300D01*
X89623600Y-79437700D02*
X89653600Y-79407700D01*
X86079800Y-79437700D02*
X89623600Y-79437700D01*
X79921600Y-79427700D02*
X80861800Y-80367900D01*
X77993000Y-79427700D02*
X79921600Y-79427700D01*
X138228000Y-52412200D02*
X135360000Y-55280000D01*
X149440000Y-52412200D02*
X138228000Y-52412200D01*
X113745000Y-50825000D02*
X113745000Y-52776500D01*
X120730000Y-43840000D02*
X113745000Y-50825000D01*
X134123000Y-54042900D02*
X135360000Y-55280000D01*
X134123000Y-52912400D02*
X134123000Y-54042900D01*
X133625000Y-52414500D02*
X134123000Y-52912400D01*
X133625000Y-47481000D02*
X133625000Y-52414500D01*
X133424000Y-47280000D02*
X133625000Y-47481000D01*
X129984000Y-43840000D02*
X133424000Y-47280000D01*
X123270000Y-43840000D02*
X129984000Y-43840000D01*
X120730000Y-43840000D02*
X123270000Y-43840000D01*
X125200000Y-106632000D02*
X125200000Y-100780000D01*
X134070000Y-115502000D02*
X125200000Y-106632000D01*
X134070000Y-116900000D02*
X134070000Y-115502000D01*
X140440000Y-123270000D02*
X134070000Y-116900000D01*
X146601000Y-123270000D02*
X147088000Y-123757000D01*
X140440000Y-123270000D02*
X146601000Y-123270000D01*
X140440000Y-123270000D02*
X140440000Y-138510000D01*
X70250000Y-119386000D02*
X77784800Y-111851000D01*
X70250000Y-126105000D02*
X70250000Y-119386000D01*
X66700800Y-129654000D02*
X70250000Y-126105000D01*
X78930000Y-108150000D02*
X78940000Y-108150000D01*
X78920000Y-108140000D02*
X78930000Y-108150000D01*
X78950000Y-108150000D02*
X78920000Y-108140000D01*
X81112800Y-108150000D02*
X78950000Y-108150000D01*
X86080000Y-103183000D02*
X81112800Y-108150000D01*
X86080000Y-102531000D02*
X86080000Y-103183000D01*
X83514000Y-99965000D02*
X86080000Y-102531000D01*
X75069000Y-99965000D02*
X83514000Y-99965000D01*
X74704000Y-100330000D02*
X75069000Y-99965000D01*
X74704000Y-95542200D02*
X79179900Y-91066300D01*
X74704000Y-100330000D02*
X74704000Y-95542200D01*
X91031300Y-78030000D02*
X89653600Y-79407700D01*
X92180000Y-78030000D02*
X91031300Y-78030000D01*
X100156000Y-72614300D02*
X108801000Y-72614300D01*
X98980600Y-71439300D02*
X100156000Y-72614300D01*
X98888000Y-71531900D02*
X98980600Y-71439300D01*
X89908200Y-71531900D02*
X98888000Y-71531900D01*
X85231900Y-71531900D02*
X89908200Y-71531900D01*
X85070000Y-71370000D02*
X85231900Y-71531900D01*
X75508400Y-144070000D02*
X78670000Y-144070000D01*
X72409400Y-147169000D02*
X75508400Y-144070000D01*
X66867300Y-147169000D02*
X72409400Y-147169000D01*
X103567000Y-149330000D02*
X110939000Y-156702000D01*
X93670000Y-149330000D02*
X103567000Y-149330000D01*
X112492000Y-54030000D02*
X113745000Y-52776500D01*
X100360000Y-54030000D02*
X112492000Y-54030000D01*
X99416200Y-54973400D02*
X100360000Y-54030000D01*
X98306400Y-56083200D02*
X99416200Y-54973400D01*
X86823100Y-56083200D02*
X98306400Y-56083200D01*
X66836400Y-147200000D02*
X66867300Y-147169000D01*
X66836400Y-152587000D02*
X66836400Y-147200000D01*
X66867300Y-129820000D02*
X66700800Y-129654000D01*
X66867300Y-147169000D02*
X66867300Y-129820000D01*
%TO.N,GND*%
X107230000Y-128630000D02*
X107180000Y-128580000D01*
X107230000Y-128500000D02*
X107230000Y-128630000D01*
X107100000Y-128500000D02*
X107230000Y-128500000D01*
X102350000Y-123750000D02*
X107100000Y-128500000D01*
X98790000Y-123750000D02*
X102350000Y-123750000D01*
X90310000Y-74980000D02*
X91100000Y-75770000D01*
X90310000Y-73617900D02*
X90310000Y-74980000D01*
X90807900Y-73120000D02*
X90310000Y-73617900D01*
X94030000Y-73120000D02*
X90807900Y-73120000D01*
X96970000Y-76060000D02*
X94030000Y-73120000D01*
X69790000Y-113770000D02*
X63640000Y-113770000D01*
X70040000Y-114020000D02*
X69790000Y-113770000D01*
X82990000Y-128580000D02*
X83020000Y-128540000D01*
X83020000Y-127020000D02*
X82990000Y-128580000D01*
X86290000Y-123750000D02*
X83020000Y-127020000D01*
X75300000Y-122500000D02*
X74830000Y-122970000D01*
X85040000Y-122500000D02*
X75300000Y-122500000D01*
X86290000Y-123750000D02*
X85040000Y-122500000D01*
X80000000Y-84315400D02*
X80000000Y-85030000D01*
X88545400Y-75770000D02*
X80000000Y-84315400D01*
X91100000Y-75770000D02*
X88545400Y-75770000D01*
X90250000Y-39880000D02*
X92790000Y-39880000D01*
X90250000Y-43840000D02*
X90250000Y-39880000D01*
X90250000Y-52900000D02*
X90250000Y-43840000D01*
X91630000Y-54280000D02*
X90250000Y-52900000D01*
%TD*%
M02*
