%TF.GenerationSoftware,KiCad,Pcbnew,8.0.4*%
%TF.CreationDate,2024-09-09T17:53:17+02:00*%
%TF.ProjectId,LogicBoard 3GE,4c6f6769-6342-46f6-9172-64203347452e,rev?*%
%TF.SameCoordinates,Original*%
%TF.FileFunction,Drillmap*%
%TF.FilePolarity,Positive*%
%FSLAX45Y45*%
G04 Gerber Fmt 4.5, Leading zero omitted, Abs format (unit mm)*
G04 Created by KiCad (PCBNEW 8.0.4) date 2024-09-09 17:53:17*
%MOMM*%
%LPD*%
G01*
G04 APERTURE LIST*
%ADD10C,0.100000*%
%ADD11C,0.200000*%
G04 APERTURE END LIST*
D10*
X4755000Y-2720000D02*
X15199000Y-2720000D01*
X15199000Y-16827000D01*
X4755000Y-16827000D01*
X4755000Y-2720000D01*
X13348469Y-3055531D02*
G75*
G02*
X13019531Y-3055531I-164469J0D01*
G01*
X13019531Y-3055531D02*
G75*
G02*
X13348469Y-3055531I164469J0D01*
G01*
X7316469Y-3054531D02*
G75*
G02*
X6987531Y-3054531I-164469J0D01*
G01*
X6987531Y-3054531D02*
G75*
G02*
X7316469Y-3054531I164469J0D01*
G01*
D11*
X5010777Y-17143484D02*
X5010777Y-16943484D01*
X5010777Y-16943484D02*
X5058396Y-16943484D01*
X5058396Y-16943484D02*
X5086967Y-16953008D01*
X5086967Y-16953008D02*
X5106015Y-16972055D01*
X5106015Y-16972055D02*
X5115539Y-16991103D01*
X5115539Y-16991103D02*
X5125063Y-17029198D01*
X5125063Y-17029198D02*
X5125063Y-17057770D01*
X5125063Y-17057770D02*
X5115539Y-17095865D01*
X5115539Y-17095865D02*
X5106015Y-17114912D01*
X5106015Y-17114912D02*
X5086967Y-17133960D01*
X5086967Y-17133960D02*
X5058396Y-17143484D01*
X5058396Y-17143484D02*
X5010777Y-17143484D01*
X5210777Y-17143484D02*
X5210777Y-17010150D01*
X5210777Y-17048246D02*
X5220301Y-17029198D01*
X5220301Y-17029198D02*
X5229824Y-17019674D01*
X5229824Y-17019674D02*
X5248872Y-17010150D01*
X5248872Y-17010150D02*
X5267920Y-17010150D01*
X5334586Y-17143484D02*
X5334586Y-17010150D01*
X5334586Y-16943484D02*
X5325063Y-16953008D01*
X5325063Y-16953008D02*
X5334586Y-16962531D01*
X5334586Y-16962531D02*
X5344110Y-16953008D01*
X5344110Y-16953008D02*
X5334586Y-16943484D01*
X5334586Y-16943484D02*
X5334586Y-16962531D01*
X5458396Y-17143484D02*
X5439348Y-17133960D01*
X5439348Y-17133960D02*
X5429824Y-17114912D01*
X5429824Y-17114912D02*
X5429824Y-16943484D01*
X5563158Y-17143484D02*
X5544110Y-17133960D01*
X5544110Y-17133960D02*
X5534586Y-17114912D01*
X5534586Y-17114912D02*
X5534586Y-16943484D01*
X5791729Y-17143484D02*
X5791729Y-16943484D01*
X5791729Y-16943484D02*
X5858396Y-17086341D01*
X5858396Y-17086341D02*
X5925062Y-16943484D01*
X5925062Y-16943484D02*
X5925062Y-17143484D01*
X6106015Y-17143484D02*
X6106015Y-17038722D01*
X6106015Y-17038722D02*
X6096491Y-17019674D01*
X6096491Y-17019674D02*
X6077443Y-17010150D01*
X6077443Y-17010150D02*
X6039348Y-17010150D01*
X6039348Y-17010150D02*
X6020301Y-17019674D01*
X6106015Y-17133960D02*
X6086967Y-17143484D01*
X6086967Y-17143484D02*
X6039348Y-17143484D01*
X6039348Y-17143484D02*
X6020301Y-17133960D01*
X6020301Y-17133960D02*
X6010777Y-17114912D01*
X6010777Y-17114912D02*
X6010777Y-17095865D01*
X6010777Y-17095865D02*
X6020301Y-17076817D01*
X6020301Y-17076817D02*
X6039348Y-17067293D01*
X6039348Y-17067293D02*
X6086967Y-17067293D01*
X6086967Y-17067293D02*
X6106015Y-17057770D01*
X6201253Y-17010150D02*
X6201253Y-17210150D01*
X6201253Y-17019674D02*
X6220301Y-17010150D01*
X6220301Y-17010150D02*
X6258396Y-17010150D01*
X6258396Y-17010150D02*
X6277443Y-17019674D01*
X6277443Y-17019674D02*
X6286967Y-17029198D01*
X6286967Y-17029198D02*
X6296491Y-17048246D01*
X6296491Y-17048246D02*
X6296491Y-17105389D01*
X6296491Y-17105389D02*
X6286967Y-17124436D01*
X6286967Y-17124436D02*
X6277443Y-17133960D01*
X6277443Y-17133960D02*
X6258396Y-17143484D01*
X6258396Y-17143484D02*
X6220301Y-17143484D01*
X6220301Y-17143484D02*
X6201253Y-17133960D01*
X6382205Y-17124436D02*
X6391729Y-17133960D01*
X6391729Y-17133960D02*
X6382205Y-17143484D01*
X6382205Y-17143484D02*
X6372682Y-17133960D01*
X6372682Y-17133960D02*
X6382205Y-17124436D01*
X6382205Y-17124436D02*
X6382205Y-17143484D01*
X6382205Y-17019674D02*
X6391729Y-17029198D01*
X6391729Y-17029198D02*
X6382205Y-17038722D01*
X6382205Y-17038722D02*
X6372682Y-17029198D01*
X6372682Y-17029198D02*
X6382205Y-17019674D01*
X6382205Y-17019674D02*
X6382205Y-17038722D01*
M02*
