M48
; DRILL file {KiCad 8.0.4} date 2024-09-09T17:53:17+0200
; FORMAT={-:-/ absolute / inch / decimal}
; #@! TF.CreationDate,2024-09-09T17:53:17+02:00
; #@! TF.GenerationSoftware,Kicad,Pcbnew,8.0.4
; #@! TF.FileFunction,Plated,1,4,PTH
FMAT,2
INCH
; #@! TA.AperFunction,Plated,PTH,ViaDrill
T1C0.0157
; #@! TA.AperFunction,Plated,PTH,ComponentDrill
T2C0.0276
; #@! TA.AperFunction,Plated,PTH,ComponentDrill
T3C0.0315
; #@! TA.AperFunction,Plated,PTH,ComponentDrill
T4C0.0354
; #@! TA.AperFunction,Plated,PTH,ComponentDrill
T5C0.0374
; #@! TA.AperFunction,Plated,PTH,ComponentDrill
T6C0.0394
; #@! TA.AperFunction,Plated,PTH,ComponentDrill
T7C0.0400
; #@! TA.AperFunction,Plated,PTH,ComponentDrill
T8C0.0469
; #@! TA.AperFunction,Plated,PTH,ComponentDrill
T9C0.0512
; #@! TA.AperFunction,Plated,PTH,ComponentDrill
T10C0.0669
; #@! TA.AperFunction,Plated,PTH,ComponentDrill
T11C0.0866
; #@! TA.AperFunction,Plated,PTH,ComponentDrill
T12C0.1378
%
G90
G05
T1
X1.9335Y-6.5421
X1.9358Y-5.4055
X1.9374Y-4.0516
X1.9382Y-6.2039
X1.939Y-3.5583
X1.939Y-4.2449
X1.939Y-4.8075
X1.939Y-5.0118
X1.9402Y-3.7228
X1.9402Y-3.8902
X1.9402Y-4.4457
X1.9402Y-4.6276
X1.9406Y-5.1933
X1.9406Y-5.6543
X1.9406Y-5.9256
X2.0937Y-3.5539
X2.117Y-2.8049
X2.117Y-3.3236
X2.1284Y-4.9803
X2.1322Y-2.6783
X2.1688Y-4.6357
X2.174Y-3.422
X2.1811Y-3.0314
X2.1811Y-3.1814
X2.1811Y-3.261
X2.1928Y-3.1029
X2.1972Y-6.5472
X2.2106Y-3.4232
X2.2859Y-2.3741
X2.2864Y-2.228
X2.2913Y-3.5551
X2.2929Y-3.938
X2.2994Y-3.0384
X2.3072Y-2.7196
X2.3126Y-2.9772
X2.4252Y-3.4122
X2.4382Y-3.5567
X2.4472Y-2.9689
X2.4543Y-6.5449
X2.5043Y-2.3713
X2.5052Y-5.9574
X2.5091Y-3.3948
X2.5139Y-6.2209
X2.5496Y-3.5567
X2.5786Y-5.3784
X2.5961Y-4.0595
X2.6195Y-3.1819
X2.6217Y-2.8596
X2.628Y-2.9771
X2.6294Y-3.1201
X2.6355Y-4.2364
X2.6357Y-2.9326
X2.7194Y-6.1993
X2.7249Y-3.1995
X2.7295Y-2.3638
X2.7306Y-4.8016
X2.7313Y-3.4906
X2.7406Y-3.5555
X2.7591Y-6.5449
X2.763Y-5.9717
X2.7673Y-2.9386
X2.8071Y-4.8589
X2.8119Y-3.4099
X2.8232Y-6.3299
X2.8733Y-4.0433
X2.8744Y-3.5555
X2.883Y-5.1547
X2.8859Y-3.432
X2.887Y-3.3467
X2.9071Y-3.6078
X2.9142Y-4.6734
X2.915Y-6.0382
X2.9242Y-5.5529
X2.9429Y-4.5937
X2.9484Y-6.039
X2.9502Y-3.276
X2.9532Y-4.0458
X2.9587Y-4.3923
X2.9634Y-4.6417
X2.9657Y-4.7075
X2.967Y-5.4027
X3.0034Y-4.2439
X3.0118Y-5.6469
X3.0492Y-6.5449
X3.0657Y-3.4822
X3.0685Y-5.576
X3.0706Y-6.0363
X3.0706Y-4.9805
X3.0706Y-2.8755
X3.1Y-4.3633
X3.1078Y-4.57
X3.1096Y-3.8691
X3.112Y-4.106
X3.1139Y-4.9311
X3.1209Y-1.6831
X3.1303Y-4.3939
X3.1421Y-4.4851
X3.1572Y-4.95
X3.1728Y-4.3921
X3.1736Y-6.035
X3.177Y-2.8905
X3.1873Y-5.4387
X3.1992Y-3.5555
X3.2007Y-5.4807
X3.2026Y-3.0478
X3.2067Y-6.0346
X3.2132Y-4.3811
X3.2157Y-6.1701
X3.227Y-1.2752
X3.2354Y-4.2627
X3.2396Y-4.22
X3.254Y-5.0386
X3.2549Y-2.8296
X3.2558Y-5.0986
X3.256Y-4.3924
X3.2632Y-3.8691
X3.2862Y-4.2614
X3.2884Y-4.7929
X3.3141Y-2.8555
X3.3194Y-4.9805
X3.3254Y-4.2144
X3.3311Y-5.2595
X3.3323Y-6.5449
X3.3417Y-4.6255
X3.3417Y-2.2197
X3.3441Y-3.5555
X3.3448Y-4.8071
X3.3535Y-4.7564
X3.3626Y-6.1075
X3.3642Y-6.1409
X3.3661Y-4.3969
X3.3753Y-5.7557
X3.3799Y-4.2055
X3.3834Y-1.2752
X3.3855Y-5.0145
X3.3856Y-4.9563
X3.4004Y-4.7878
X3.402Y-5.0756
X3.415Y-5.276
X3.4258Y-3.2428
X3.4264Y-5.7888
X3.4347Y-3.7159
X3.4713Y-5.5724
X3.4846Y-5.5004
X3.4933Y-2.5724
X3.4984Y-5.0839
X3.5001Y-4.2611
X3.542Y-4.8214
X3.5436Y-4.3957
X3.5528Y-1.4669
X3.5538Y-4.5114
X3.5546Y-4.0658
X3.5555Y-1.6839
X3.5565Y-4.7066
X3.5586Y-1.9093
X3.563Y-2.3596
X3.5643Y-3.0183
X3.569Y-2.637
X3.576Y-4.1052
X3.5863Y-3.2428
X3.6063Y-3.4689
X3.6082Y-4.6364
X3.6132Y-3.7636
X3.6177Y-6.539
X3.6464Y-3.8938
X3.6496Y-1.8028
X3.6528Y-3.4693
X3.6531Y-2.415
X3.6539Y-2.8657
X3.6738Y-4.51
X3.6744Y-5.0752
X3.6961Y-2.248
X3.6962Y-2.9812
X3.7039Y-4.0535
X3.7063Y-3.7354
X3.7063Y-3.898
X3.7114Y-4.818
X3.7248Y-5.2298
X3.726Y-5.3283
X3.7268Y-5.2953
X3.73Y-4.653
X3.7303Y-2.0602
X3.7319Y-5.4043
X3.7382Y-2.6064
X3.7385Y-6.0035
X3.7687Y-3.2605
X3.7843Y-2.9394
X3.7945Y-5.9563
X3.8025Y-2.0347
X3.8036Y-6.2572
X3.8388Y-3.3138
X3.8506Y-2.0724
X3.8526Y-2.9852
X3.8703Y-3.628
X3.8821Y-4.3482
X3.8953Y-5.5831
X3.8961Y-5.6205
X3.8978Y-5.2992
X3.8984Y-3.3607
X3.9008Y-5.4693
X3.9409Y-6.5366
X3.9635Y-2.8614
X3.9799Y-3.9642
X3.9806Y-3.2965
X3.9807Y-2.6606
X3.9839Y-3.1091
X3.9846Y-2.9669
X4.0089Y-3.9966
X4.009Y-4.8139
X4.0138Y-1.7761
X4.0185Y-4.9816
X4.0185Y-5.148
X4.0199Y-3.1392
X4.0272Y-4.2142
X4.1061Y-3.1123
X4.1181Y-6.0382
X4.121Y-2.9439
X4.1213Y-3.8634
X4.1286Y-3.3248
X4.1398Y-2.6282
X4.1606Y-2.7008
X4.1642Y-6.039
X4.1657Y-2.8551
X4.1777Y-2.213
X4.1786Y-3.3939
X4.1797Y-2.3714
X4.1835Y-2.0154
X4.1849Y-2.4217
X4.2198Y-3.3106
X4.2576Y-4.5403
X4.2657Y-2.3284
X4.2785Y-2.3712
X4.2791Y-4.2193
X4.2797Y-3.2785
X4.2848Y-2.5712
X4.2854Y-2.6631
X4.3217Y-2.8879
X4.3311Y-6.539
X4.3672Y-3.2783
X4.3696Y-2.18
X4.3728Y-3.3484
X4.4227Y-2.0416
X4.4422Y-6.0201
X4.4594Y-3.6728
X4.4646Y-5.561
X4.4827Y-2.0181
X4.5874Y-3.1027
X4.5913Y-3.2461
X4.5929Y-3.213
X4.6056Y-5.2565
X4.6173Y-4.2193
X4.6294Y-5.7425
X4.6295Y-5.6315
X4.6429Y-3.2797
X4.6466Y-6.3337
X4.6715Y-2.7623
X4.6764Y-1.8244
X4.685Y-2.0117
X4.7016Y-3.6441
X4.7043Y-6.539
X4.7819Y-3.1842
X4.7849Y-3.3492
X4.7897Y-4.3361
X4.7909Y-3.2563
X4.8201Y-2.3382
X4.8315Y-2.2433
X4.8315Y-2.6339
X4.8374Y-1.6378
X4.8839Y-4.2362
X4.8932Y-3.2693
X4.8936Y-3.396
X4.8937Y-4.4142
X4.9268Y-2.6339
X4.9319Y-2.555
X4.9348Y-6.1834
X4.9454Y-1.8642
X4.9474Y-2.9829
X4.9681Y-2.7755
X4.9707Y-3.1489
X4.9785Y-4.5698
X4.987Y-2.8949
X4.9882Y-5.9744
X5.0319Y-6.5429
X5.0402Y-4.4906
X5.0589Y-3.7092
X5.07Y-3.2483
X5.1067Y-5.6398
X5.1241Y-3.1545
X5.1317Y-3.4289
X5.1483Y-2.7829
X5.1508Y-4.3083
X5.1574Y-3.1894
X5.1951Y-2.9752
X5.2106Y-2.9212
X5.212Y-2.7855
X5.2432Y-3.1408
X5.289Y-5.9283
X5.3008Y-4.5988
X5.3169Y-3.2016
X5.3413Y-5.6772
X5.3758Y-2.8024
X5.3921Y-6.5429
X5.399Y-2.7117
X5.4006Y-2.9852
X5.4009Y-2.8707
X5.4128Y-2.9424
X5.4157Y-2.6425
X5.4184Y-1.6019
X5.4339Y-3.4203
X5.4374Y-4.1532
X5.4516Y-3.176
X5.4736Y-4.7142
X5.4886Y-2.6625
X5.5287Y-3.1269
X5.5687Y-2.7893
X5.5776Y-2.9
X5.5996Y-4.9527
X5.6767Y-3.1301
X5.7075Y-6.5429
X5.7134Y-4.8319
X5.7147Y-3.1814
X5.7679Y-2.9487
X5.7709Y-2.8529
X5.7709Y-3.0047
X5.8701Y-4.8988
X5.9134Y-6.5429
X5.9236Y-6.2343
X5.9256Y-5.302
X5.9272Y-5.6374
X5.9272Y-5.922
X5.928Y-5.0441
T3
X2.1295Y-1.8996
X2.1295Y-2.4996
X2.2295Y-1.8996
X2.2295Y-2.4996
X2.3295Y-1.8996
X2.3295Y-2.4996
X2.4295Y-1.8996
X2.4295Y-2.4996
X2.5295Y-1.8996
X2.5295Y-2.4996
X2.6295Y-1.8996
X2.6295Y-2.4996
X2.7295Y-1.8996
X2.7295Y-2.4996
X2.8295Y-1.8996
X2.8295Y-2.4996
X2.9295Y-1.8996
X2.9295Y-2.4996
X3.0295Y-1.8996
X3.0295Y-2.4996
X3.1295Y-1.8996
X3.1295Y-2.4996
X3.2295Y-1.8996
X3.2295Y-2.4996
X3.3295Y-1.8996
X3.3295Y-2.4996
X3.4295Y-1.8996
X3.4295Y-2.4996
X3.8787Y-3.4815
X3.8787Y-4.0815
X3.8819Y-1.9094
X3.8819Y-2.5094
X3.9787Y-3.4815
X3.9787Y-4.0815
X3.9819Y-1.9094
X3.9819Y-2.5094
X4.0787Y-3.4815
X4.0787Y-4.0815
X4.0819Y-1.9094
X4.0819Y-2.5094
X4.1787Y-3.4815
X4.1787Y-4.0815
X4.1819Y-1.9094
X4.1819Y-2.5094
X4.2787Y-3.4815
X4.2787Y-4.0815
X4.2819Y-1.9094
X4.2819Y-2.5094
X4.3787Y-3.4815
X4.3787Y-4.0815
X4.3819Y-1.9094
X4.3819Y-2.5094
X4.4787Y-3.4815
X4.4787Y-4.0815
X4.4819Y-1.9094
X4.4819Y-2.5094
X4.5787Y-3.4815
X4.5787Y-4.0815
X4.5819Y-1.9094
X4.5819Y-2.5094
X4.6787Y-3.4815
X4.6787Y-4.0815
X4.6819Y-1.9094
X4.6819Y-2.5094
X4.7787Y-3.4815
X4.7787Y-4.0815
X4.7819Y-1.9094
X4.7819Y-2.5094
X4.8787Y-3.4815
X4.8787Y-4.0815
X4.8819Y-1.9094
X4.8819Y-2.5094
X4.9787Y-3.4815
X4.9787Y-4.0815
X4.9819Y-1.9094
X4.9819Y-2.5094
X5.0787Y-3.4815
X5.0787Y-4.0815
X5.0819Y-1.9094
X5.0819Y-2.5094
X5.1787Y-3.4815
X5.1787Y-4.0815
X5.1819Y-1.9094
X5.1819Y-2.5094
X5.2787Y-3.4815
X5.2787Y-4.0815
X5.2819Y-1.9094
X5.2819Y-2.5094
X5.3787Y-3.4815
X5.3787Y-4.0815
X5.3819Y-1.9094
X5.3819Y-2.5094
X5.4787Y-3.4815
X5.4787Y-4.0815
X5.4819Y-1.9094
X5.4819Y-2.5094
X5.5787Y-3.4815
X5.5787Y-4.0815
X5.5819Y-1.9094
X5.5819Y-2.5094
X5.6787Y-3.4815
X5.6787Y-4.0815
X5.6819Y-1.9094
X5.6819Y-2.5094
X5.7787Y-3.4815
X5.7787Y-4.0815
X5.7819Y-1.9094
X5.7819Y-2.5094
T4
X2.8122Y-6.1224
X2.8122Y-6.2209
X2.8909Y-6.1224
X2.9421Y-6.2209
X2.9697Y-6.1224
X3.0209Y-6.2209
X3.0484Y-6.1224
X3.1272Y-6.1224
X3.1272Y-6.2209
X4.0012Y-6.1213
X4.0012Y-6.2197
X4.0799Y-6.1213
X4.1311Y-6.2197
X4.1587Y-6.1213
X4.2098Y-6.2197
X4.2374Y-6.1213
X4.3161Y-6.1213
X4.3161Y-6.2197
T5
X5.1772Y-6.4516
X5.2756Y-6.4516
X5.374Y-6.4516
T6
X5.563Y-5.5189
X5.5969Y-6.0091
X5.5969Y-6.1075
X5.6614Y-5.5189
T7
X3.1531Y-1.3878
X3.1531Y-1.5437
X3.2531Y-1.3878
X3.2531Y-1.5437
X3.3531Y-1.3878
X3.3531Y-1.5437
X3.4531Y-1.3878
X3.4531Y-1.5437
X3.5531Y-1.3878
X3.5531Y-1.5437
X3.6531Y-1.3878
X3.6531Y-1.5437
X3.7531Y-1.3878
X3.7531Y-1.5437
X3.8531Y-1.3878
X3.8531Y-1.5437
X3.9531Y-1.3878
X3.9531Y-1.5437
X4.0531Y-1.3878
X4.0531Y-1.5437
X4.1531Y-1.3878
X4.1531Y-1.5437
X4.2531Y-1.3878
X4.2531Y-1.5437
X4.3531Y-1.3878
X4.3531Y-1.5437
X4.4531Y-1.3878
X4.4531Y-1.5437
X4.5531Y-1.3878
X4.5531Y-1.5437
X4.6531Y-1.3878
X4.6531Y-1.5437
X4.7531Y-1.3878
X4.7531Y-1.5437
X4.8531Y-1.3878
X4.8531Y-1.5437
T8
X4.4193Y-4.3272
X4.4193Y-4.4272
X4.4193Y-4.5272
X4.4193Y-4.6272
T9
X2.0811Y-4.6807
X2.0811Y-5.3146
X2.0854Y-4.0354
X2.278Y-4.4839
X2.278Y-4.8776
X2.278Y-5.1177
X2.278Y-5.5114
X2.2823Y-3.8386
X2.2823Y-4.2323
T10
X4.6898Y-5.1661
X4.8457Y-5.1661
X5.0016Y-5.1661
X5.1575Y-5.1661
T11
X2.6843Y-6.335
X3.2551Y-6.335
X3.8732Y-6.3339
X4.4441Y-6.3339
T12
X2.0681Y-6.4185
X2.1161Y-1.2831
X5.7374Y-1.2925
X5.7689Y-6.4126
T2
G00X2.9402Y-6.3705
M15
G01X2.9992Y-6.3705
M16
G05
G00X4.1291Y-6.3693
M15
G01X4.1882Y-6.3693
M16
G05
M30
