%TF.GenerationSoftware,KiCad,Pcbnew,8.0.4*%
%TF.CreationDate,2024-09-09T17:53:27+02:00*%
%TF.ProjectId,LogicBoard 3GE,4c6f6769-6342-46f6-9172-64203347452e,rev?*%
%TF.SameCoordinates,Original*%
%TF.FileFunction,Soldermask,Bot*%
%TF.FilePolarity,Negative*%
%FSLAX46Y46*%
G04 Gerber Fmt 4.6, Leading zero omitted, Abs format (unit mm)*
G04 Created by KiCad (PCBNEW 8.0.4) date 2024-09-09 17:53:27*
%MOMM*%
%LPD*%
G01*
G04 APERTURE LIST*
G04 Aperture macros list*
%AMRoundRect*
0 Rectangle with rounded corners*
0 $1 Rounding radius*
0 $2 $3 $4 $5 $6 $7 $8 $9 X,Y pos of 4 corners*
0 Add a 4 corners polygon primitive as box body*
4,1,4,$2,$3,$4,$5,$6,$7,$8,$9,$2,$3,0*
0 Add four circle primitives for the rounded corners*
1,1,$1+$1,$2,$3*
1,1,$1+$1,$4,$5*
1,1,$1+$1,$6,$7*
1,1,$1+$1,$8,$9*
0 Add four rect primitives between the rounded corners*
20,1,$1+$1,$2,$3,$4,$5,0*
20,1,$1+$1,$4,$5,$6,$7,0*
20,1,$1+$1,$6,$7,$8,$9,0*
20,1,$1+$1,$8,$9,$2,$3,0*%
G04 Aperture macros list end*
%ADD10RoundRect,0.250000X0.750000X-0.600000X0.750000X0.600000X-0.750000X0.600000X-0.750000X-0.600000X0*%
%ADD11O,2.000000X1.700000*%
%ADD12C,7.000000*%
%ADD13R,1.600000X1.600000*%
%ADD14O,1.600000X1.600000*%
%ADD15RoundRect,0.250000X1.330000X1.800000X-1.330000X1.800000X-1.330000X-1.800000X1.330000X-1.800000X0*%
%ADD16O,3.160000X4.100000*%
%ADD17C,1.800000*%
%ADD18RoundRect,0.250000X0.600000X0.725000X-0.600000X0.725000X-0.600000X-0.725000X0.600000X-0.725000X0*%
%ADD19O,1.700000X1.950000*%
%ADD20C,2.340000*%
%ADD21RoundRect,0.102000X-0.704000X-0.704000X0.704000X-0.704000X0.704000X0.704000X-0.704000X0.704000X0*%
%ADD22C,1.612000*%
%ADD23O,2.934000X1.434000*%
%ADD24C,3.420000*%
%ADD25RoundRect,0.250000X0.600000X0.750000X-0.600000X0.750000X-0.600000X-0.750000X0.600000X-0.750000X0*%
%ADD26O,1.700000X2.000000*%
%ADD27RoundRect,0.250000X0.845000X-0.620000X0.845000X0.620000X-0.845000X0.620000X-0.845000X-0.620000X0*%
%ADD28O,2.190000X1.740000*%
G04 APERTURE END LIST*
D10*
%TO.C,J103*%
X142160000Y-155130000D03*
D11*
X142160000Y-152630000D03*
%TD*%
D12*
%TO.C,MNT2*%
X146530000Y-162880000D03*
%TD*%
D13*
%TO.C,IC207*%
X146860000Y-48500000D03*
D14*
X144320000Y-48500000D03*
X141780000Y-48500000D03*
X139240000Y-48500000D03*
X136700000Y-48500000D03*
X134160000Y-48500000D03*
X131620000Y-48500000D03*
X129080000Y-48500000D03*
X126540000Y-48500000D03*
X124000000Y-48500000D03*
X121460000Y-48500000D03*
X118920000Y-48500000D03*
X116380000Y-48500000D03*
X113840000Y-48500000D03*
X111300000Y-48500000D03*
X108760000Y-48500000D03*
X106220000Y-48500000D03*
X103680000Y-48500000D03*
X101140000Y-48500000D03*
X98600000Y-48500000D03*
X98600000Y-63740000D03*
X101140000Y-63740000D03*
X103680000Y-63740000D03*
X106220000Y-63740000D03*
X108760000Y-63740000D03*
X111300000Y-63740000D03*
X113840000Y-63740000D03*
X116380000Y-63740000D03*
X118920000Y-63740000D03*
X121460000Y-63740000D03*
X124000000Y-63740000D03*
X126540000Y-63740000D03*
X129080000Y-63740000D03*
X131620000Y-63740000D03*
X134160000Y-63740000D03*
X136700000Y-63740000D03*
X139240000Y-63740000D03*
X141780000Y-63740000D03*
X144320000Y-63740000D03*
X146860000Y-63740000D03*
%TD*%
D15*
%TO.C,J204*%
X131000000Y-131220000D03*
D16*
X127040000Y-131220000D03*
X123080000Y-131220000D03*
X119120000Y-131220000D03*
%TD*%
D12*
%TO.C,MNT4*%
X52530000Y-163030000D03*
%TD*%
D13*
%TO.C,IC206*%
X146780000Y-88430000D03*
D14*
X144240000Y-88430000D03*
X141700000Y-88430000D03*
X139160000Y-88430000D03*
X136620000Y-88430000D03*
X134080000Y-88430000D03*
X131540000Y-88430000D03*
X129000000Y-88430000D03*
X126460000Y-88430000D03*
X123920000Y-88430000D03*
X121380000Y-88430000D03*
X118840000Y-88430000D03*
X116300000Y-88430000D03*
X113760000Y-88430000D03*
X111220000Y-88430000D03*
X108680000Y-88430000D03*
X106140000Y-88430000D03*
X103600000Y-88430000D03*
X101060000Y-88430000D03*
X98520000Y-88430000D03*
X98520000Y-103670000D03*
X101060000Y-103670000D03*
X103600000Y-103670000D03*
X106140000Y-103670000D03*
X108680000Y-103670000D03*
X111220000Y-103670000D03*
X113760000Y-103670000D03*
X116300000Y-103670000D03*
X118840000Y-103670000D03*
X121380000Y-103670000D03*
X123920000Y-103670000D03*
X126460000Y-103670000D03*
X129000000Y-103670000D03*
X131540000Y-103670000D03*
X134080000Y-103670000D03*
X136620000Y-103670000D03*
X139160000Y-103670000D03*
X141700000Y-103670000D03*
X144240000Y-103670000D03*
X146780000Y-103670000D03*
%TD*%
D17*
%TO.C,J201*%
X123270000Y-35250000D03*
X123270000Y-39210000D03*
X120730000Y-35250000D03*
X120730000Y-39210000D03*
X118190000Y-35250000D03*
X118190000Y-39210000D03*
X115650000Y-35250000D03*
X115650000Y-39210000D03*
X113110000Y-35250000D03*
X113110000Y-39210000D03*
X110570000Y-35250000D03*
X110570000Y-39210000D03*
X108030000Y-35250000D03*
X108030000Y-39210000D03*
X105490000Y-35250000D03*
X105490000Y-39210000D03*
X102950000Y-35250000D03*
X102950000Y-39210000D03*
X100410000Y-35250000D03*
X100410000Y-39210000D03*
X97870000Y-35250000D03*
X97870000Y-39210000D03*
X95330000Y-35250000D03*
X95330000Y-39210000D03*
X92790000Y-35250000D03*
X92790000Y-39210000D03*
X90250000Y-35250000D03*
X90250000Y-39210000D03*
X87710000Y-35250000D03*
X87710000Y-39210000D03*
X85170000Y-35250000D03*
X85170000Y-39210000D03*
X82630000Y-35250000D03*
X82630000Y-39210000D03*
X80090000Y-35250000D03*
X80090000Y-39210000D03*
%TD*%
D18*
%TO.C,J304*%
X136500000Y-163870000D03*
D19*
X134000000Y-163870000D03*
X131500000Y-163870000D03*
%TD*%
D20*
%TO.C,R335*%
X57860000Y-139990000D03*
X52860000Y-134990000D03*
X57860000Y-129990000D03*
%TD*%
D12*
%TO.C,MNT1*%
X53750000Y-32590000D03*
%TD*%
D13*
%TO.C,IC208*%
X87110000Y-48250000D03*
D14*
X84570000Y-48250000D03*
X82030000Y-48250000D03*
X79490000Y-48250000D03*
X76950000Y-48250000D03*
X74410000Y-48250000D03*
X71870000Y-48250000D03*
X69330000Y-48250000D03*
X66790000Y-48250000D03*
X64250000Y-48250000D03*
X61710000Y-48250000D03*
X59170000Y-48250000D03*
X56630000Y-48250000D03*
X54090000Y-48250000D03*
X54090000Y-63490000D03*
X56630000Y-63490000D03*
X59170000Y-63490000D03*
X61710000Y-63490000D03*
X64250000Y-63490000D03*
X66790000Y-63490000D03*
X69330000Y-63490000D03*
X71870000Y-63490000D03*
X74410000Y-63490000D03*
X76950000Y-63490000D03*
X79490000Y-63490000D03*
X82030000Y-63490000D03*
X84570000Y-63490000D03*
X87110000Y-63490000D03*
%TD*%
D21*
%TO.C,J202*%
X76730000Y-158010000D03*
D22*
X74730000Y-158010000D03*
X79430000Y-158010000D03*
X77430000Y-155510000D03*
X75430000Y-155510000D03*
X71430000Y-158010000D03*
X79430000Y-155510000D03*
X73430000Y-155510000D03*
X71430000Y-155510000D03*
D23*
X75430000Y-161810000D03*
D24*
X68180000Y-160910000D03*
X82680000Y-160910000D03*
%TD*%
D12*
%TO.C,MNT3*%
X145730000Y-32830000D03*
%TD*%
D20*
%TO.C,R333*%
X57860000Y-123890000D03*
X52860000Y-118890000D03*
X57860000Y-113890000D03*
%TD*%
D25*
%TO.C,SW201*%
X143800000Y-140180000D03*
D26*
X141300000Y-140180000D03*
%TD*%
D27*
%TO.C,J301*%
X112250000Y-117530000D03*
D28*
X112250000Y-114990000D03*
X112250000Y-112450000D03*
X112250000Y-109910000D03*
%TD*%
D20*
%TO.C,R302*%
X57970000Y-107500000D03*
X52970000Y-102500000D03*
X57970000Y-97500000D03*
%TD*%
D21*
%TO.C,J203*%
X106930000Y-157980000D03*
D22*
X104930000Y-157980000D03*
X109630000Y-157980000D03*
X107630000Y-155480000D03*
X105630000Y-155480000D03*
X101630000Y-157980000D03*
X109630000Y-155480000D03*
X103630000Y-155480000D03*
X101630000Y-155480000D03*
D23*
X105630000Y-161780000D03*
D24*
X98380000Y-160880000D03*
X112880000Y-160880000D03*
%TD*%
M02*
