M48
; DRILL file {KiCad 8.0.4} date 2024-08-19T15:35:22+0200
; FORMAT={-:-/ absolute / inch / decimal}
; #@! TF.CreationDate,2024-08-19T15:35:22+02:00
; #@! TF.GenerationSoftware,Kicad,Pcbnew,8.0.4
; #@! TF.FileFunction,Plated,1,4,PTH
FMAT,2
INCH
; #@! TA.AperFunction,Plated,PTH,ViaDrill
T1C0.0157
; #@! TA.AperFunction,Plated,PTH,ComponentDrill
T2C0.0276
; #@! TA.AperFunction,Plated,PTH,ComponentDrill
T3C0.0315
; #@! TA.AperFunction,Plated,PTH,ComponentDrill
T4C0.0354
; #@! TA.AperFunction,Plated,PTH,ComponentDrill
T5C0.0374
; #@! TA.AperFunction,Plated,PTH,ComponentDrill
T6C0.0400
; #@! TA.AperFunction,Plated,PTH,ComponentDrill
T7C0.0469
; #@! TA.AperFunction,Plated,PTH,ComponentDrill
T8C0.0512
; #@! TA.AperFunction,Plated,PTH,ComponentDrill
T9C0.0669
; #@! TA.AperFunction,Plated,PTH,ComponentDrill
T10C0.0866
; #@! TA.AperFunction,Plated,PTH,ComponentDrill
T11C0.1378
%
G90
G05
T1
X2.2886Y-4.6571
X2.386Y-3.1532
X2.4976Y-6.1624
X2.5035Y-4.6713
X2.5055Y-4.4791
X2.559Y-6.0126
X2.5614Y-1.6016
X2.5626Y-1.648
X2.5831Y-2.4646
X2.5888Y-3.7878
X2.5976Y-4.822
X2.6012Y-1.6016
X2.6014Y-3.1261
X2.6024Y-1.648
X2.626Y-5.1045
X2.6274Y-3.5446
X2.6314Y-6.0074
X2.6326Y-5.7941
X2.6449Y-1.6016
X2.6461Y-1.648
X2.6604Y-4.8289
X2.6886Y-1.6016
X2.6898Y-1.648
X2.6931Y-5.5884
X2.7054Y-2.3222
X2.7215Y-5.7433
X2.7251Y-4.9528
X2.7255Y-5.3915
X2.728Y-4.8411
X2.7575Y-4.489
X2.7677Y-5.3786
X2.769Y-4.3465
X2.7783Y-4.2539
X2.7975Y-3.9141
X2.8122Y-4.735
X2.8174Y-2.056
X2.8306Y-2.1735
X2.8449Y-2.0935
X2.8492Y-2.8176
X2.856Y-1.9464
X2.8679Y-4.8545
X2.8739Y-5.5319
X2.8855Y-2.7391
X2.8868Y-2.6997
X2.8928Y-4.9675
X2.9142Y-1.4502
X2.9173Y-5.7748
X2.923Y-5.5925
X2.9335Y-2.4276
X2.9335Y-2.4642
X2.9411Y-3.95
X2.9461Y-4.8413
X2.9467Y-4.9482
X2.9528Y-2.8129
X2.9612Y-4.4121
X2.9689Y-2.4276
X2.9705Y-2.4646
X2.9746Y-2.0316
X3.0282Y-5.0351
X3.0394Y-2.2783
X3.0457Y-1.4434
X3.0624Y-4.4036
X3.0706Y-3.1271
X3.0732Y-3.7344
X3.0846Y-2.4127
X3.0995Y-3.7902
X3.1071Y-4.2575
X3.1092Y-3.8566
X3.1149Y-4.4551
X3.1173Y-3.5853
X3.1197Y-3.4882
X3.1496Y-3.3476
X3.1696Y-3.9691
X3.1796Y-3.5866
X3.1833Y-4.2207
X3.1835Y-3.1641
X3.1874Y-2.015
X3.1884Y-2.1111
X3.1931Y-4.4437
X3.196Y-4.3913
X3.227Y-1.2961
X3.227Y-6.0775
X3.2319Y-3.7318
X3.2335Y-2.0885
X3.2516Y-2.273
X3.2597Y-4.67
X3.2673Y-5.0622
X3.3043Y-2.6445
X3.3297Y-3.6516
X3.3305Y-3.3955
X3.3307Y-3.4901
X3.3382Y-3.7753
X3.3421Y-6.2046
X3.3436Y-3.3314
X3.3492Y-2.8098
X3.3839Y-1.3539
X3.389Y-3.1275
X3.389Y-4.0367
X3.4173Y-2.4335
X3.4182Y-2.208
X3.441Y-3.3843
X3.4435Y-3.336
X3.4482Y-5.0183
X3.4542Y-3.446
X3.4678Y-3.9034
X3.4697Y-2.5161
X3.4705Y-6.1917
X3.4706Y-5.2174
X3.478Y-1.9703
X3.4903Y-6.2874
X3.5004Y-4.6921
X3.5101Y-3.5079
X3.5144Y-5.0385
X3.5279Y-2.6527
X3.528Y-3.3398
X3.5297Y-3.1263
X3.5299Y-4.5161
X3.5383Y-4.3406
X3.5394Y-2.5157
X3.5397Y-2.8162
X3.5445Y-3.6384
X3.5506Y-4.1158
X3.5758Y-2.4122
X3.5866Y-2.9831
X3.589Y-2.9122
X3.5914Y-4.2704
X3.5925Y-4.7714
X3.5967Y-3.8815
X3.5969Y-2.4486
X3.5998Y-3.5383
X3.5998Y-4.673
X3.6048Y-4.467
X3.6075Y-2.137
X3.6224Y-2.4173
X3.6327Y-2.3762
X3.636Y-2.6276
X3.6378Y-2.0947
X3.6525Y-3.1315
X3.6526Y-2.3246
X3.6609Y-5.3315
X3.682Y-5.0348
X3.6878Y-5.8791
X3.6962Y-1.6617
X3.6962Y-5.8004
X3.6963Y-3.2327
X3.7152Y-4.4
X3.7181Y-2.1311
X3.7304Y-2.6253
X3.7307Y-3.1572
X3.737Y-3.2352
X3.7387Y-6.0125
X3.7419Y-4.2278
X3.7468Y-2.3629
X3.7546Y-3.3125
X3.7977Y-5.0406
X3.8062Y-3.3645
X3.8177Y-2.9945
X3.8263Y-2.6437
X3.8282Y-3.5804
X3.829Y-4.0663
X3.8493Y-3.9093
X3.8501Y-4.6602
X3.8863Y-2.6251
X3.8969Y-2.8126
X3.8987Y-2.4218
X3.914Y-2.1643
X3.9642Y-3.1383
X3.9696Y-5.6995
X3.972Y-2.0808
X4.0089Y-5.2598
X4.0183Y-3.3481
X4.0202Y-1.8426
X4.03Y-2.9744
X4.0502Y-2.5891
X4.0551Y-2.9344
X4.1311Y-3.3353
X4.14Y-3.4045
X4.1587Y-2.9782
X4.1717Y-3.5994
X4.2041Y-2.3637
X4.2166Y-4.2602
X4.2217Y-5.0591
X4.2572Y-4.0656
X4.2835Y-2.8588
X4.3065Y-4.7735
X4.3152Y-2.2727
X4.3288Y-2.4354
X4.3461Y-1.8685
X4.352Y-4.2523
X4.3677Y-6.1694
X4.3743Y-2.2252
X4.3877Y-3.0026
X4.3926Y-3.4155
X4.3949Y-2.0891
X4.395Y-2.9171
X4.4117Y-3.7897
X4.4323Y-5.8122
X4.4692Y-4.4118
X4.4765Y-5.7152
X4.4781Y-2.0778
X4.4781Y-6.1982
X4.4888Y-5.627
X4.4916Y-2.3327
X4.5304Y-5.6436
X4.5437Y-4.2994
X4.5443Y-4.4351
X4.5658Y-3.1261
X4.5658Y-3.4968
X4.5658Y-2.3691
X4.5713Y-2.5027
X4.6087Y-5.8299
X4.6098Y-2.4181
X4.642Y-2.8856
X4.6434Y-2.5427
X4.6582Y-4.9729
X4.6627Y-1.8658
X4.6989Y-2.7133
X4.728Y-4.7702
X4.7429Y-1.8636
X4.7805Y-4.9193
X4.7917Y-2.6363
X4.8245Y-2.6726
X4.8396Y-1.6496
X4.9046Y-2.7183
X4.9087Y-5.8785
X4.9378Y-1.8311
X4.9699Y-4.3725
X4.9881Y-2.7159
X4.9957Y-1.863
X5.0457Y-1.7622
X5.0472Y-3.5865
X5.1291Y-1.8343
X5.1317Y-2.6185
X5.1352Y-2.4831
X5.1853Y-6.0624
X5.2439Y-3.5786
X5.2529Y-1.8614
X5.2645Y-5.9978
X5.2835Y-4.4131
X5.2933Y-1.8248
X5.2943Y-2.0497
X5.3228Y-4.4972
X5.3248Y-6.1957
X5.3256Y-6.2295
X5.3772Y-4.4972
X5.4584Y-2.2301
X5.5067Y-4.4969
X5.5219Y-4.3326
X5.5328Y-4.6831
X5.5588Y-3.5872
X5.563Y-2.3132
X5.5729Y-5.13
X5.6169Y-2.6768
X5.677Y-5.5387
X5.7786Y-1.576
X5.7908Y-4.7036
X5.7909Y-4.8723
X5.8835Y-2.0635
X5.8835Y-4.9767
T3
X3.0972Y-4.872
X3.0972Y-4.972
X3.0972Y-5.072
X3.0972Y-5.172
X3.0972Y-5.272
X3.0972Y-5.372
X3.0972Y-5.472
X3.0972Y-5.572
X3.0972Y-5.672
X3.3972Y-4.872
X3.3972Y-4.972
X3.3972Y-5.072
X3.3972Y-5.172
X3.3972Y-5.272
X3.3972Y-5.372
X3.3972Y-5.472
X3.3972Y-5.572
X3.3972Y-5.672
X3.5894Y-4.872
X3.5894Y-4.972
X3.5894Y-5.072
X3.5894Y-5.172
X3.5894Y-5.272
X3.5894Y-5.372
X3.5894Y-5.472
X3.5894Y-5.572
X3.5894Y-5.672
X3.6291Y-3.072
X3.6291Y-3.672
X3.6291Y-3.9677
X3.6291Y-4.5677
X3.7291Y-3.072
X3.7291Y-3.672
X3.7291Y-3.9677
X3.7291Y-4.5677
X3.8291Y-3.072
X3.8291Y-3.672
X3.8291Y-3.9677
X3.8291Y-4.5677
X3.8894Y-4.872
X3.8894Y-4.972
X3.8894Y-5.072
X3.8894Y-5.172
X3.8894Y-5.272
X3.8894Y-5.372
X3.8894Y-5.472
X3.8894Y-5.572
X3.8894Y-5.672
X3.9291Y-3.072
X3.9291Y-3.672
X3.9291Y-3.9677
X3.9291Y-4.5677
X4.0291Y-3.072
X4.0291Y-3.672
X4.0291Y-3.9677
X4.0291Y-4.5677
X4.1291Y-3.072
X4.1291Y-3.672
X4.1291Y-3.9677
X4.1291Y-4.5677
X4.2291Y-2.1764
X4.2291Y-2.7764
X4.2291Y-3.072
X4.2291Y-3.672
X4.2291Y-3.9677
X4.2291Y-4.5677
X4.2291Y-4.8531
X4.2291Y-5.4531
X4.3291Y-2.1764
X4.3291Y-2.7764
X4.3291Y-3.072
X4.3291Y-3.672
X4.3291Y-3.9677
X4.3291Y-4.5677
X4.3291Y-4.8531
X4.3291Y-5.4531
X4.4291Y-2.1764
X4.4291Y-2.7764
X4.4291Y-3.072
X4.4291Y-3.672
X4.4291Y-3.9677
X4.4291Y-4.5677
X4.4291Y-4.8531
X4.4291Y-5.4531
X4.5291Y-2.1764
X4.5291Y-2.7764
X4.5291Y-3.072
X4.5291Y-3.672
X4.5291Y-3.9677
X4.5291Y-4.5677
X4.5291Y-4.8531
X4.5291Y-5.4531
X4.6291Y-2.1764
X4.6291Y-2.7764
X4.6291Y-3.072
X4.6291Y-3.672
X4.6291Y-3.9677
X4.6291Y-4.5677
X4.6291Y-4.8531
X4.6291Y-5.4531
X4.7291Y-2.1764
X4.7291Y-2.7764
X4.7291Y-3.072
X4.7291Y-3.672
X4.7291Y-3.9677
X4.7291Y-4.5677
X4.7291Y-4.8531
X4.7291Y-5.4531
X4.8291Y-2.1764
X4.8291Y-2.7764
X4.8291Y-3.072
X4.8291Y-3.672
X4.8291Y-3.9677
X4.8291Y-4.5677
X4.8291Y-4.8531
X4.8291Y-5.4531
X4.9291Y-2.1764
X4.9291Y-2.7764
X4.9291Y-3.072
X4.9291Y-3.672
X4.9291Y-3.9677
X4.9291Y-4.5677
X4.9291Y-4.8531
X4.9291Y-5.4531
X5.0291Y-2.1764
X5.0291Y-2.7764
X5.0291Y-3.072
X5.0291Y-3.672
X5.0291Y-3.9677
X5.0291Y-4.5677
X5.0291Y-4.8531
X5.0291Y-5.4531
X5.1291Y-2.1764
X5.1291Y-2.7764
X5.1291Y-3.072
X5.1291Y-3.672
X5.1291Y-3.9677
X5.1291Y-4.5677
X5.1291Y-4.8531
X5.1291Y-5.4531
X5.2291Y-2.1764
X5.2291Y-2.7764
X5.2291Y-3.072
X5.2291Y-3.672
X5.2291Y-3.9677
X5.2291Y-4.5677
X5.2291Y-4.8531
X5.2291Y-5.4531
X5.3291Y-2.1764
X5.3291Y-2.7764
X5.3291Y-3.072
X5.3291Y-3.672
X5.3291Y-3.9677
X5.3291Y-4.5677
X5.3291Y-4.8531
X5.3291Y-5.4531
X5.4291Y-2.1764
X5.4291Y-2.7764
X5.4291Y-3.072
X5.4291Y-3.672
X5.4291Y-3.9677
X5.4291Y-4.5677
X5.4291Y-4.8531
X5.4291Y-5.4531
X5.5291Y-2.1764
X5.5291Y-2.7764
X5.5291Y-3.072
X5.5291Y-3.672
X5.5291Y-3.9677
X5.5291Y-4.5677
X5.5291Y-4.8531
X5.5291Y-5.4531
T4
X2.7638Y-6.113
X2.7638Y-6.2114
X2.8425Y-6.113
X2.8937Y-6.2114
X2.9213Y-6.113
X2.9724Y-6.2114
X3.0Y-6.113
X3.0787Y-6.113
X3.0787Y-6.2114
X4.626Y-6.1205
X4.626Y-6.2189
X4.7047Y-6.1205
X4.7559Y-6.2189
X4.7835Y-6.1205
X4.8346Y-6.2189
X4.8622Y-6.1205
X4.9409Y-6.1205
X4.9409Y-6.2189
T5
X3.8079Y-6.3539
X3.9063Y-6.3539
X4.0047Y-6.3539
T6
X3.1531Y-1.5701
X3.1531Y-1.726
X3.2531Y-1.5701
X3.2531Y-1.726
X3.3531Y-1.5701
X3.3531Y-1.726
X3.4531Y-1.5701
X3.4531Y-1.726
X3.5531Y-1.5701
X3.5531Y-1.726
X3.6531Y-1.5701
X3.6531Y-1.726
X3.7531Y-1.5701
X3.7531Y-1.726
X3.8531Y-1.5701
X3.8531Y-1.726
X3.9531Y-1.5701
X3.9531Y-1.726
X4.0531Y-1.5701
X4.0531Y-1.726
X4.1531Y-1.5701
X4.1531Y-1.726
X4.2531Y-1.5701
X4.2531Y-1.726
X4.3531Y-1.5701
X4.3531Y-1.726
X4.4531Y-1.5701
X4.4531Y-1.726
X4.5531Y-1.5701
X4.5531Y-1.726
X4.6531Y-1.5701
X4.6531Y-1.726
X4.7531Y-1.5701
X4.7531Y-1.726
X4.8531Y-1.5701
X4.8531Y-1.726
T7
X2.1406Y-5.0657
X2.1406Y-5.1657
X2.1406Y-5.2657
X2.1406Y-5.3657
X2.1476Y-5.6429
X2.1476Y-5.7429
T8
X2.0362Y-4.2602
X2.0409Y-3.5976
X2.0421Y-2.9217
X2.2331Y-4.0634
X2.2331Y-4.4571
X2.2378Y-3.4008
X2.2378Y-3.7945
X2.239Y-2.7248
X2.239Y-3.1185
X5.7709Y-1.6764
X5.7709Y-1.8764
T9
X2.1833Y-1.828
X2.1833Y-1.9839
X2.1833Y-2.1398
X2.1833Y-2.2957
T10
X2.6358Y-6.3256
X3.2067Y-6.3256
X4.498Y-6.3331
X5.0689Y-6.3331
T11
X2.1083Y-6.4091
X2.1161Y-1.2831
X5.7374Y-1.2925
X5.7689Y-6.4126
T2
G00X2.8917Y-6.361
M15
G01X2.9508Y-6.361
M16
G05
G00X4.7539Y-6.3685
M15
G01X4.813Y-6.3685
M16
G05
M30
