%TF.GenerationSoftware,KiCad,Pcbnew,8.0.4*%
%TF.CreationDate,2024-08-19T15:35:32+02:00*%
%TF.ProjectId,LogicBoard 3GE,4c6f6769-6342-46f6-9172-64203347452e,rev?*%
%TF.SameCoordinates,Original*%
%TF.FileFunction,Soldermask,Bot*%
%TF.FilePolarity,Negative*%
%FSLAX46Y46*%
G04 Gerber Fmt 4.6, Leading zero omitted, Abs format (unit mm)*
G04 Created by KiCad (PCBNEW 8.0.4) date 2024-08-19 15:35:32*
%MOMM*%
%LPD*%
G01*
G04 APERTURE LIST*
G04 Aperture macros list*
%AMRoundRect*
0 Rectangle with rounded corners*
0 $1 Rounding radius*
0 $2 $3 $4 $5 $6 $7 $8 $9 X,Y pos of 4 corners*
0 Add a 4 corners polygon primitive as box body*
4,1,4,$2,$3,$4,$5,$6,$7,$8,$9,$2,$3,0*
0 Add four circle primitives for the rounded corners*
1,1,$1+$1,$2,$3*
1,1,$1+$1,$4,$5*
1,1,$1+$1,$6,$7*
1,1,$1+$1,$8,$9*
0 Add four rect primitives between the rounded corners*
20,1,$1+$1,$2,$3,$4,$5,0*
20,1,$1+$1,$4,$5,$6,$7,0*
20,1,$1+$1,$6,$7,$8,$9,0*
20,1,$1+$1,$8,$9,$2,$3,0*%
G04 Aperture macros list end*
%ADD10C,7.000000*%
%ADD11O,1.600000X1.600000*%
%ADD12R,1.600000X1.600000*%
%ADD13RoundRect,0.250000X1.800000X-1.330000X1.800000X1.330000X-1.800000X1.330000X-1.800000X-1.330000X0*%
%ADD14O,4.100000X3.160000*%
%ADD15C,1.800000*%
%ADD16RoundRect,0.250000X-0.600000X-0.725000X0.600000X-0.725000X0.600000X0.725000X-0.600000X0.725000X0*%
%ADD17O,1.700000X1.950000*%
%ADD18C,2.340000*%
%ADD19C,3.420000*%
%ADD20O,2.934000X1.434000*%
%ADD21C,1.612000*%
%ADD22RoundRect,0.102000X-0.704000X-0.704000X0.704000X-0.704000X0.704000X0.704000X-0.704000X0.704000X0*%
%ADD23RoundRect,0.250000X-0.845000X0.620000X-0.845000X-0.620000X0.845000X-0.620000X0.845000X0.620000X0*%
%ADD24O,2.190000X1.740000*%
%ADD25RoundRect,0.250000X0.845000X-0.620000X0.845000X0.620000X-0.845000X0.620000X-0.845000X-0.620000X0*%
%ADD26C,2.600000*%
G04 APERTURE END LIST*
D10*
%TO.C,MNT2*%
X146530000Y-162880000D03*
%TD*%
D11*
%TO.C,IC201*%
X140440000Y-138510000D03*
X137900000Y-138510000D03*
X135360000Y-138510000D03*
X132820000Y-138510000D03*
X130280000Y-138510000D03*
X127740000Y-138510000D03*
X125200000Y-138510000D03*
X122660000Y-138510000D03*
X120120000Y-138510000D03*
X117580000Y-138510000D03*
X115040000Y-138510000D03*
X112500000Y-138510000D03*
X109960000Y-138510000D03*
X107420000Y-138510000D03*
X107420000Y-123270000D03*
X109960000Y-123270000D03*
X112500000Y-123270000D03*
X115040000Y-123270000D03*
X117580000Y-123270000D03*
X120120000Y-123270000D03*
X122660000Y-123270000D03*
X125200000Y-123270000D03*
X127740000Y-123270000D03*
X130280000Y-123270000D03*
X132820000Y-123270000D03*
X135360000Y-123270000D03*
X137900000Y-123270000D03*
D12*
X140440000Y-123270000D03*
%TD*%
D13*
%TO.C,J204*%
X55455000Y-58310000D03*
D14*
X55455000Y-54350000D03*
X55455000Y-50390000D03*
X55455000Y-46430000D03*
%TD*%
D10*
%TO.C,MNT4*%
X53550000Y-162790000D03*
%TD*%
D15*
%TO.C,J201*%
X123270000Y-39880000D03*
X123270000Y-43840000D03*
X120730000Y-39880000D03*
X120730000Y-43840000D03*
X118190000Y-39880000D03*
X118190000Y-43840000D03*
X115650000Y-39880000D03*
X115650000Y-43840000D03*
X113110000Y-39880000D03*
X113110000Y-43840000D03*
X110570000Y-39880000D03*
X110570000Y-43840000D03*
X108030000Y-39880000D03*
X108030000Y-43840000D03*
X105490000Y-39880000D03*
X105490000Y-43840000D03*
X102950000Y-39880000D03*
X102950000Y-43840000D03*
X100410000Y-39880000D03*
X100410000Y-43840000D03*
X97870000Y-39880000D03*
X97870000Y-43840000D03*
X95330000Y-39880000D03*
X95330000Y-43840000D03*
X92790000Y-39880000D03*
X92790000Y-43840000D03*
X90250000Y-39880000D03*
X90250000Y-43840000D03*
X87710000Y-39880000D03*
X87710000Y-43840000D03*
X85170000Y-39880000D03*
X85170000Y-43840000D03*
X82630000Y-39880000D03*
X82630000Y-43840000D03*
X80090000Y-39880000D03*
X80090000Y-43840000D03*
%TD*%
D16*
%TO.C,J304*%
X96720000Y-161390000D03*
D17*
X99220000Y-161390000D03*
X101720000Y-161390000D03*
%TD*%
D18*
%TO.C,R335*%
X56720000Y-113210000D03*
X51720000Y-108210000D03*
X56720000Y-103210000D03*
%TD*%
D10*
%TO.C,MNT1*%
X53750000Y-32590000D03*
%TD*%
D12*
%TO.C,IC208*%
X140440000Y-55280000D03*
D11*
X137900000Y-55280000D03*
X135360000Y-55280000D03*
X132820000Y-55280000D03*
X130280000Y-55280000D03*
X127740000Y-55280000D03*
X125200000Y-55280000D03*
X122660000Y-55280000D03*
X120120000Y-55280000D03*
X117580000Y-55280000D03*
X115040000Y-55280000D03*
X112500000Y-55280000D03*
X109960000Y-55280000D03*
X107420000Y-55280000D03*
X107420000Y-70520000D03*
X109960000Y-70520000D03*
X112500000Y-70520000D03*
X115040000Y-70520000D03*
X117580000Y-70520000D03*
X120120000Y-70520000D03*
X122660000Y-70520000D03*
X125200000Y-70520000D03*
X127740000Y-70520000D03*
X130280000Y-70520000D03*
X132820000Y-70520000D03*
X135360000Y-70520000D03*
X137900000Y-70520000D03*
X140440000Y-70520000D03*
%TD*%
D19*
%TO.C,J202*%
X81450000Y-160670000D03*
X66950000Y-160670000D03*
D20*
X74200000Y-161570000D03*
D21*
X70200000Y-155270000D03*
X72200000Y-155270000D03*
X78200000Y-155270000D03*
X70200000Y-157770000D03*
X74200000Y-155270000D03*
X76200000Y-155270000D03*
X78200000Y-157770000D03*
X73500000Y-157770000D03*
D22*
X75500000Y-157770000D03*
%TD*%
D10*
%TO.C,MNT3*%
X145730000Y-32830000D03*
%TD*%
D18*
%TO.C,R333*%
X56840000Y-96380000D03*
X51840000Y-91380000D03*
X56840000Y-86380000D03*
%TD*%
D23*
%TO.C,J301*%
X54370000Y-128670000D03*
D24*
X54370000Y-131210000D03*
X54370000Y-133750000D03*
X54370000Y-136290000D03*
%TD*%
D18*
%TO.C,R302*%
X56870000Y-79210000D03*
X51870000Y-74210000D03*
X56870000Y-69210000D03*
%TD*%
D25*
%TO.C,J302*%
X54550000Y-145870000D03*
D24*
X54550000Y-143330000D03*
%TD*%
D22*
%TO.C,J203*%
X122800000Y-157960000D03*
D21*
X120800000Y-157960000D03*
X125500000Y-157960000D03*
X123500000Y-155460000D03*
X121500000Y-155460000D03*
X117500000Y-157960000D03*
X125500000Y-155460000D03*
X119500000Y-155460000D03*
X117500000Y-155460000D03*
D20*
X121500000Y-161760000D03*
D19*
X114250000Y-160860000D03*
X128750000Y-160860000D03*
%TD*%
D26*
%TO.C,SW201*%
X146580000Y-47660000D03*
X146580000Y-42580000D03*
%TD*%
D12*
%TO.C,IC207*%
X140440000Y-78030000D03*
D11*
X137900000Y-78030000D03*
X135360000Y-78030000D03*
X132820000Y-78030000D03*
X130280000Y-78030000D03*
X127740000Y-78030000D03*
X125200000Y-78030000D03*
X122660000Y-78030000D03*
X120120000Y-78030000D03*
X117580000Y-78030000D03*
X115040000Y-78030000D03*
X112500000Y-78030000D03*
X109960000Y-78030000D03*
X107420000Y-78030000D03*
X104880000Y-78030000D03*
X102340000Y-78030000D03*
X99800000Y-78030000D03*
X97260000Y-78030000D03*
X94720000Y-78030000D03*
X92180000Y-78030000D03*
X92180000Y-93270000D03*
X94720000Y-93270000D03*
X97260000Y-93270000D03*
X99800000Y-93270000D03*
X102340000Y-93270000D03*
X104880000Y-93270000D03*
X107420000Y-93270000D03*
X109960000Y-93270000D03*
X112500000Y-93270000D03*
X115040000Y-93270000D03*
X117580000Y-93270000D03*
X120120000Y-93270000D03*
X122660000Y-93270000D03*
X125200000Y-93270000D03*
X127740000Y-93270000D03*
X130280000Y-93270000D03*
X132820000Y-93270000D03*
X135360000Y-93270000D03*
X137900000Y-93270000D03*
X140440000Y-93270000D03*
%TD*%
%TO.C,IC204*%
X78670000Y-144070000D03*
X78670000Y-141530000D03*
X78670000Y-138990000D03*
X78670000Y-136450000D03*
X78670000Y-133910000D03*
X78670000Y-131370000D03*
X78670000Y-128830000D03*
X78670000Y-126290000D03*
X78670000Y-123750000D03*
X86290000Y-123750000D03*
X86290000Y-126290000D03*
X86290000Y-128830000D03*
X86290000Y-131370000D03*
X86290000Y-133910000D03*
X86290000Y-136450000D03*
X86290000Y-138990000D03*
X86290000Y-141530000D03*
D12*
X86290000Y-144070000D03*
%TD*%
D11*
%TO.C,IC205*%
X91170000Y-144070000D03*
X91170000Y-141530000D03*
X91170000Y-138990000D03*
X91170000Y-136450000D03*
X91170000Y-133910000D03*
X91170000Y-131370000D03*
X91170000Y-128830000D03*
X91170000Y-126290000D03*
X91170000Y-123750000D03*
X98790000Y-123750000D03*
X98790000Y-126290000D03*
X98790000Y-128830000D03*
X98790000Y-131370000D03*
X98790000Y-133910000D03*
X98790000Y-136450000D03*
X98790000Y-138990000D03*
X98790000Y-141530000D03*
D12*
X98790000Y-144070000D03*
%TD*%
%TO.C,IC206*%
X140440000Y-100780000D03*
D11*
X137900000Y-100780000D03*
X135360000Y-100780000D03*
X132820000Y-100780000D03*
X130280000Y-100780000D03*
X127740000Y-100780000D03*
X125200000Y-100780000D03*
X122660000Y-100780000D03*
X120120000Y-100780000D03*
X117580000Y-100780000D03*
X115040000Y-100780000D03*
X112500000Y-100780000D03*
X109960000Y-100780000D03*
X107420000Y-100780000D03*
X104880000Y-100780000D03*
X102340000Y-100780000D03*
X99800000Y-100780000D03*
X97260000Y-100780000D03*
X94720000Y-100780000D03*
X92180000Y-100780000D03*
X92180000Y-116020000D03*
X94720000Y-116020000D03*
X97260000Y-116020000D03*
X99800000Y-116020000D03*
X102340000Y-116020000D03*
X104880000Y-116020000D03*
X107420000Y-116020000D03*
X109960000Y-116020000D03*
X112500000Y-116020000D03*
X115040000Y-116020000D03*
X117580000Y-116020000D03*
X120120000Y-116020000D03*
X122660000Y-116020000D03*
X125200000Y-116020000D03*
X127740000Y-116020000D03*
X130280000Y-116020000D03*
X132820000Y-116020000D03*
X135360000Y-116020000D03*
X137900000Y-116020000D03*
X140440000Y-116020000D03*
%TD*%
M02*
