%TF.GenerationSoftware,KiCad,Pcbnew,8.0.4*%
%TF.CreationDate,2024-08-19T15:21:18+02:00*%
%TF.ProjectId,LogicBoard 3GE,4c6f6769-6342-46f6-9172-64203347452e,rev?*%
%TF.SameCoordinates,Original*%
%TF.FileFunction,Paste,Top*%
%TF.FilePolarity,Positive*%
%FSLAX46Y46*%
G04 Gerber Fmt 4.6, Leading zero omitted, Abs format (unit mm)*
G04 Created by KiCad (PCBNEW 8.0.4) date 2024-08-19 15:21:18*
%MOMM*%
%LPD*%
G01*
G04 APERTURE LIST*
G04 Aperture macros list*
%AMRoundRect*
0 Rectangle with rounded corners*
0 $1 Rounding radius*
0 $2 $3 $4 $5 $6 $7 $8 $9 X,Y pos of 4 corners*
0 Add a 4 corners polygon primitive as box body*
4,1,4,$2,$3,$4,$5,$6,$7,$8,$9,$2,$3,0*
0 Add four circle primitives for the rounded corners*
1,1,$1+$1,$2,$3*
1,1,$1+$1,$4,$5*
1,1,$1+$1,$6,$7*
1,1,$1+$1,$8,$9*
0 Add four rect primitives between the rounded corners*
20,1,$1+$1,$2,$3,$4,$5,0*
20,1,$1+$1,$4,$5,$6,$7,0*
20,1,$1+$1,$6,$7,$8,$9,0*
20,1,$1+$1,$8,$9,$2,$3,0*%
G04 Aperture macros list end*
%ADD10RoundRect,0.250000X0.925000X-0.412500X0.925000X0.412500X-0.925000X0.412500X-0.925000X-0.412500X0*%
%ADD11RoundRect,0.250000X-0.450000X0.262500X-0.450000X-0.262500X0.450000X-0.262500X0.450000X0.262500X0*%
%ADD12RoundRect,0.250000X-0.475000X0.250000X-0.475000X-0.250000X0.475000X-0.250000X0.475000X0.250000X0*%
%ADD13RoundRect,0.250000X-1.000000X1.750000X-1.000000X-1.750000X1.000000X-1.750000X1.000000X1.750000X0*%
%ADD14RoundRect,0.250000X0.450000X-0.262500X0.450000X0.262500X-0.450000X0.262500X-0.450000X-0.262500X0*%
%ADD15RoundRect,0.112500X0.187500X0.112500X-0.187500X0.112500X-0.187500X-0.112500X0.187500X-0.112500X0*%
%ADD16RoundRect,0.250000X0.262500X0.450000X-0.262500X0.450000X-0.262500X-0.450000X0.262500X-0.450000X0*%
%ADD17RoundRect,0.250000X-0.925000X0.412500X-0.925000X-0.412500X0.925000X-0.412500X0.925000X0.412500X0*%
%ADD18RoundRect,0.112500X-0.187500X-0.112500X0.187500X-0.112500X0.187500X0.112500X-0.187500X0.112500X0*%
%ADD19RoundRect,0.250000X0.475000X-0.250000X0.475000X0.250000X-0.475000X0.250000X-0.475000X-0.250000X0*%
%ADD20RoundRect,0.112500X-0.112500X0.187500X-0.112500X-0.187500X0.112500X-0.187500X0.112500X0.187500X0*%
%ADD21RoundRect,0.250000X-0.250000X-0.475000X0.250000X-0.475000X0.250000X0.475000X-0.250000X0.475000X0*%
%ADD22RoundRect,0.150000X0.150000X-0.587500X0.150000X0.587500X-0.150000X0.587500X-0.150000X-0.587500X0*%
%ADD23RoundRect,0.250000X0.250000X0.475000X-0.250000X0.475000X-0.250000X-0.475000X0.250000X-0.475000X0*%
%ADD24RoundRect,0.250000X-0.262500X-0.450000X0.262500X-0.450000X0.262500X0.450000X-0.262500X0.450000X0*%
%ADD25RoundRect,0.150000X-0.150000X0.825000X-0.150000X-0.825000X0.150000X-0.825000X0.150000X0.825000X0*%
%ADD26RoundRect,0.250000X-0.412500X-0.925000X0.412500X-0.925000X0.412500X0.925000X-0.412500X0.925000X0*%
%ADD27RoundRect,0.150000X0.725000X0.150000X-0.725000X0.150000X-0.725000X-0.150000X0.725000X-0.150000X0*%
%ADD28RoundRect,0.150000X-0.150000X0.587500X-0.150000X-0.587500X0.150000X-0.587500X0.150000X0.587500X0*%
%ADD29RoundRect,0.150000X0.825000X0.150000X-0.825000X0.150000X-0.825000X-0.150000X0.825000X-0.150000X0*%
%ADD30RoundRect,0.250000X1.750000X1.000000X-1.750000X1.000000X-1.750000X-1.000000X1.750000X-1.000000X0*%
%ADD31RoundRect,0.100000X0.637500X0.100000X-0.637500X0.100000X-0.637500X-0.100000X0.637500X-0.100000X0*%
%ADD32R,3.000000X2.800000*%
G04 APERTURE END LIST*
D10*
%TO.C,C323*%
X101730000Y-151060000D03*
X101730000Y-147985000D03*
%TD*%
D11*
%TO.C,R327*%
X101720000Y-154165000D03*
X101720000Y-155990000D03*
%TD*%
%TO.C,R313*%
X130040000Y-149395000D03*
X130040000Y-151220000D03*
%TD*%
D12*
%TO.C,C232*%
X110560000Y-161970000D03*
X110560000Y-163870000D03*
%TD*%
%TO.C,C311*%
X126410000Y-149400000D03*
X126410000Y-151300000D03*
%TD*%
%TO.C,C209*%
X89300000Y-75260000D03*
X89300000Y-73360000D03*
%TD*%
D11*
%TO.C,R346*%
X137510000Y-42790000D03*
X137510000Y-44615000D03*
%TD*%
D12*
%TO.C,C302*%
X70105000Y-50997500D03*
X70105000Y-52897500D03*
%TD*%
D13*
%TO.C,C211*%
X143750000Y-143330000D03*
X143750000Y-149430000D03*
%TD*%
D11*
%TO.C,R226*%
X110750000Y-48865000D03*
X110750000Y-50690000D03*
%TD*%
D14*
%TO.C,R312*%
X133710000Y-149385000D03*
X133710000Y-151210000D03*
%TD*%
%TO.C,R341*%
X140980000Y-44675000D03*
X140980000Y-42850000D03*
%TD*%
D11*
%TO.C,R225*%
X133630000Y-164150000D03*
X133630000Y-162325000D03*
%TD*%
D15*
%TO.C,D301*%
X98230000Y-73210000D03*
X100330000Y-73210000D03*
%TD*%
D11*
%TO.C,R338*%
X83655000Y-51070000D03*
X83655000Y-52895000D03*
%TD*%
D16*
%TO.C,R314*%
X104920000Y-73170000D03*
X103095000Y-73170000D03*
%TD*%
D12*
%TO.C,C303*%
X70105000Y-55187500D03*
X70105000Y-57087500D03*
%TD*%
D11*
%TO.C,R224*%
X133490000Y-157560000D03*
X133490000Y-159385000D03*
%TD*%
D12*
%TO.C,C230*%
X63510000Y-163850000D03*
X63510000Y-161950000D03*
%TD*%
D16*
%TO.C,R320*%
X69620000Y-102210000D03*
X67795000Y-102210000D03*
%TD*%
D12*
%TO.C,C234*%
X80890000Y-83500000D03*
X80890000Y-81600000D03*
%TD*%
D17*
%TO.C,C228*%
X147240000Y-64225000D03*
X147240000Y-67300000D03*
%TD*%
D18*
%TO.C,D302*%
X75140000Y-118190000D03*
X77240000Y-118190000D03*
%TD*%
D12*
%TO.C,C204*%
X75090000Y-73460000D03*
X75090000Y-75360000D03*
%TD*%
D14*
%TO.C,R343*%
X125920000Y-50460000D03*
X125920000Y-48635000D03*
%TD*%
D11*
%TO.C,R322*%
X87240000Y-109195000D03*
X87240000Y-111020000D03*
%TD*%
%TO.C,R216*%
X82060000Y-88615000D03*
X82060000Y-86790000D03*
%TD*%
%TO.C,R339*%
X83655000Y-54985000D03*
X83655000Y-56810000D03*
%TD*%
D19*
%TO.C,C219*%
X90080000Y-153330000D03*
X90080000Y-155230000D03*
%TD*%
%TO.C,C328*%
X130100000Y-144790000D03*
X130100000Y-146690000D03*
%TD*%
D20*
%TO.C,D201*%
X133300000Y-48290000D03*
X133300000Y-50390000D03*
%TD*%
D19*
%TO.C,C314*%
X66330000Y-81580000D03*
X66330000Y-83480000D03*
%TD*%
D11*
%TO.C,R345*%
X133950000Y-42825000D03*
X133950000Y-44650000D03*
%TD*%
D19*
%TO.C,C218*%
X59880000Y-153380000D03*
X59880000Y-155280000D03*
%TD*%
%TO.C,C236*%
X83610000Y-83500000D03*
X83610000Y-81600000D03*
%TD*%
D11*
%TO.C,R210*%
X147220000Y-120715000D03*
X147220000Y-122540000D03*
%TD*%
%TO.C,R321*%
X87200000Y-114750000D03*
X87200000Y-116575000D03*
%TD*%
%TO.C,R218*%
X63490000Y-155280000D03*
X63490000Y-153455000D03*
%TD*%
D12*
%TO.C,C312*%
X85350000Y-105140000D03*
X85350000Y-107040000D03*
%TD*%
D19*
%TO.C,C229*%
X145540000Y-53190000D03*
X145540000Y-51290000D03*
%TD*%
D12*
%TO.C,C308*%
X70550000Y-149027500D03*
X70550000Y-150927500D03*
%TD*%
D11*
%TO.C,R220*%
X86530000Y-159385000D03*
X86530000Y-157560000D03*
%TD*%
D21*
%TO.C,C210*%
X146410000Y-101540000D03*
X148310000Y-101540000D03*
%TD*%
D22*
%TO.C,Q301*%
X86080000Y-100855000D03*
X87030000Y-102730000D03*
X85130000Y-102730000D03*
%TD*%
D23*
%TO.C,C304*%
X67950000Y-109940000D03*
X66050000Y-109940000D03*
%TD*%
D24*
%TO.C,R318*%
X80910000Y-105160000D03*
X82735000Y-105160000D03*
%TD*%
D25*
%TO.C,IC203*%
X98800000Y-64280000D03*
X97530000Y-64280000D03*
X96260000Y-64280000D03*
X94990000Y-64280000D03*
X93720000Y-64280000D03*
X92450000Y-64280000D03*
X91180000Y-64280000D03*
X91180000Y-69230000D03*
X92450000Y-69230000D03*
X93720000Y-69230000D03*
X94990000Y-69230000D03*
X96260000Y-69230000D03*
X97530000Y-69230000D03*
X98800000Y-69230000D03*
%TD*%
D12*
%TO.C,C233*%
X111880000Y-149250000D03*
X111880000Y-151150000D03*
%TD*%
D11*
%TO.C,R217*%
X85940000Y-86825000D03*
X85940000Y-88650000D03*
%TD*%
%TO.C,R340*%
X83655000Y-61230000D03*
X83655000Y-59405000D03*
%TD*%
D24*
%TO.C,R315*%
X79305000Y-118220000D03*
X81130000Y-118220000D03*
%TD*%
D14*
%TO.C,R336*%
X67150000Y-150870000D03*
X67150000Y-149045000D03*
%TD*%
D16*
%TO.C,R207*%
X109950000Y-74230000D03*
X108125000Y-74230000D03*
%TD*%
D11*
%TO.C,R309*%
X81180000Y-149015000D03*
X81180000Y-150840000D03*
%TD*%
D19*
%TO.C,C315*%
X68070000Y-133075000D03*
X68070000Y-131175000D03*
%TD*%
D11*
%TO.C,R344*%
X130170000Y-42875000D03*
X130170000Y-44700000D03*
%TD*%
D26*
%TO.C,C227*%
X72205000Y-66750000D03*
X75280000Y-66750000D03*
%TD*%
D19*
%TO.C,C320*%
X63600000Y-75360000D03*
X63600000Y-73460000D03*
%TD*%
D16*
%TO.C,R305*%
X84260000Y-64950000D03*
X82435000Y-64950000D03*
%TD*%
D11*
%TO.C,R201*%
X149340000Y-57130000D03*
X149340000Y-55305000D03*
%TD*%
D27*
%TO.C,IC301*%
X79105000Y-60115000D03*
X79105000Y-58845000D03*
X79105000Y-57575000D03*
X79105000Y-56305000D03*
X79105000Y-55035000D03*
X79105000Y-53765000D03*
X79105000Y-52495000D03*
X79105000Y-51225000D03*
X73955000Y-51225000D03*
X73955000Y-52495000D03*
X73955000Y-53765000D03*
X73955000Y-55035000D03*
X73955000Y-56305000D03*
X73955000Y-57575000D03*
X73955000Y-58845000D03*
X73955000Y-60115000D03*
%TD*%
D12*
%TO.C,C226*%
X77970000Y-81630000D03*
X77970000Y-83530000D03*
%TD*%
D19*
%TO.C,C324*%
X72120000Y-83540000D03*
X72120000Y-81640000D03*
%TD*%
D14*
%TO.C,R208*%
X145570000Y-57085000D03*
X145570000Y-55260000D03*
%TD*%
D28*
%TO.C,Q302*%
X78080000Y-90622500D03*
X76180000Y-90622500D03*
X77130000Y-92497500D03*
%TD*%
D11*
%TO.C,R311*%
X119080000Y-151115000D03*
X119080000Y-149290000D03*
%TD*%
D12*
%TO.C,C310*%
X122830000Y-151190000D03*
X122830000Y-149290000D03*
%TD*%
%TO.C,C203*%
X115420000Y-144900000D03*
X115420000Y-146800000D03*
%TD*%
D16*
%TO.C,R319*%
X65425000Y-98670000D03*
X63600000Y-98670000D03*
%TD*%
D11*
%TO.C,R205*%
X63490000Y-159595000D03*
X63490000Y-157770000D03*
%TD*%
%TO.C,R219*%
X86540000Y-155172500D03*
X86540000Y-153347500D03*
%TD*%
D12*
%TO.C,C215*%
X137010000Y-153420000D03*
X137010000Y-155320000D03*
%TD*%
%TO.C,C216*%
X137050000Y-157470000D03*
X137050000Y-159370000D03*
%TD*%
D11*
%TO.C,R332*%
X77910000Y-85645000D03*
X77910000Y-87470000D03*
%TD*%
D12*
%TO.C,C224*%
X145580000Y-59380000D03*
X145580000Y-61280000D03*
%TD*%
D11*
%TO.C,R222*%
X110620000Y-153635000D03*
X110620000Y-155460000D03*
%TD*%
D19*
%TO.C,C220*%
X90110000Y-157542500D03*
X90110000Y-159442500D03*
%TD*%
D23*
%TO.C,C222*%
X148480000Y-114360000D03*
X146580000Y-114360000D03*
%TD*%
D12*
%TO.C,C206*%
X80890000Y-73380000D03*
X80890000Y-75280000D03*
%TD*%
%TO.C,C223*%
X69250000Y-81680000D03*
X69250000Y-83580000D03*
%TD*%
%TO.C,C225*%
X75090000Y-81600000D03*
X75090000Y-83500000D03*
%TD*%
D22*
%TO.C,Q303*%
X77905000Y-66875000D03*
X79805000Y-66875000D03*
X78855000Y-65000000D03*
%TD*%
D19*
%TO.C,C208*%
X86530000Y-75360000D03*
X86530000Y-73460000D03*
%TD*%
%TO.C,C301*%
X86530000Y-83550000D03*
X86530000Y-81650000D03*
%TD*%
D12*
%TO.C,C214*%
X107210000Y-153555000D03*
X107210000Y-155455000D03*
%TD*%
D14*
%TO.C,R304*%
X70075000Y-61172500D03*
X70075000Y-59347500D03*
%TD*%
D11*
%TO.C,R221*%
X86520000Y-163132500D03*
X86520000Y-161307500D03*
%TD*%
D12*
%TO.C,C325*%
X60600000Y-144040000D03*
X60600000Y-145940000D03*
%TD*%
D19*
%TO.C,C221*%
X90120000Y-161290000D03*
X90120000Y-163190000D03*
%TD*%
D26*
%TO.C,C238*%
X69270000Y-66840000D03*
X66195000Y-66840000D03*
%TD*%
D12*
%TO.C,C207*%
X83610000Y-73360000D03*
X83610000Y-75260000D03*
%TD*%
D19*
%TO.C,C317*%
X111880000Y-146770000D03*
X111880000Y-144870000D03*
%TD*%
D14*
%TO.C,R203*%
X72090000Y-73330000D03*
X72090000Y-75155000D03*
%TD*%
%TO.C,R209*%
X147120000Y-118230000D03*
X147120000Y-116405000D03*
%TD*%
%TO.C,R303*%
X71500000Y-133050000D03*
X71500000Y-131225000D03*
%TD*%
D12*
%TO.C,C235*%
X122830000Y-144860000D03*
X122830000Y-146760000D03*
%TD*%
D21*
%TO.C,C307*%
X67970000Y-120770000D03*
X66070000Y-120770000D03*
%TD*%
D29*
%TO.C,IC304*%
X71510000Y-128475000D03*
X71510000Y-127205000D03*
X71510000Y-125935000D03*
X71510000Y-124665000D03*
X66560000Y-124665000D03*
X66560000Y-125935000D03*
X66560000Y-127205000D03*
X66560000Y-128475000D03*
%TD*%
D19*
%TO.C,C321*%
X119100000Y-146800000D03*
X119100000Y-144900000D03*
%TD*%
D11*
%TO.C,R214*%
X118320000Y-50460000D03*
X118320000Y-48635000D03*
%TD*%
D14*
%TO.C,R325*%
X82240000Y-92565000D03*
X82240000Y-90740000D03*
%TD*%
%TO.C,R342*%
X129410000Y-50410000D03*
X129410000Y-48585000D03*
%TD*%
D25*
%TO.C,IC202*%
X98760000Y-51550000D03*
X97490000Y-51550000D03*
X96220000Y-51550000D03*
X94950000Y-51550000D03*
X93680000Y-51550000D03*
X92410000Y-51550000D03*
X91140000Y-51550000D03*
X91140000Y-56500000D03*
X92410000Y-56500000D03*
X93680000Y-56500000D03*
X94950000Y-56500000D03*
X96220000Y-56500000D03*
X97490000Y-56500000D03*
X98760000Y-56500000D03*
%TD*%
D14*
%TO.C,R330*%
X98300000Y-155980000D03*
X98300000Y-154155000D03*
%TD*%
%TO.C,R323*%
X86100000Y-97875000D03*
X86100000Y-96050000D03*
%TD*%
D25*
%TO.C,IC303*%
X82750000Y-109820000D03*
X81480000Y-109820000D03*
X80210000Y-109820000D03*
X78940000Y-109820000D03*
X77670000Y-109820000D03*
X76400000Y-109820000D03*
X75130000Y-109820000D03*
X75130000Y-114770000D03*
X76400000Y-114770000D03*
X77670000Y-114770000D03*
X78940000Y-114770000D03*
X80210000Y-114770000D03*
X81480000Y-114770000D03*
X82750000Y-114770000D03*
%TD*%
D21*
%TO.C,C306*%
X67940000Y-117030000D03*
X66040000Y-117030000D03*
%TD*%
D19*
%TO.C,C316*%
X89300000Y-81590000D03*
X89300000Y-83490000D03*
%TD*%
D12*
%TO.C,C326*%
X74150000Y-85570000D03*
X74150000Y-87470000D03*
%TD*%
D21*
%TO.C,C305*%
X66070000Y-113470000D03*
X67970000Y-113470000D03*
%TD*%
D30*
%TO.C,C213*%
X58320000Y-121160000D03*
X52220000Y-121160000D03*
%TD*%
D19*
%TO.C,C237*%
X126380000Y-146730000D03*
X126380000Y-144830000D03*
%TD*%
D31*
%TO.C,IC305*%
X82490000Y-100370000D03*
X82490000Y-99720000D03*
X82490000Y-99070000D03*
X82490000Y-98420000D03*
X82490000Y-97770000D03*
X82490000Y-97120000D03*
X82490000Y-96470000D03*
X76765000Y-96470000D03*
X76765000Y-97120000D03*
X76765000Y-97770000D03*
X76765000Y-98420000D03*
X76765000Y-99070000D03*
X76765000Y-99720000D03*
X76765000Y-100370000D03*
%TD*%
D23*
%TO.C,C327*%
X68000000Y-106240000D03*
X66100000Y-106240000D03*
%TD*%
D27*
%TO.C,IC302*%
X71610000Y-146210000D03*
X71610000Y-144940000D03*
X71610000Y-143670000D03*
X71610000Y-142400000D03*
X71610000Y-141130000D03*
X71610000Y-139860000D03*
X71610000Y-138590000D03*
X71610000Y-137320000D03*
X66460000Y-137320000D03*
X66460000Y-138590000D03*
X66460000Y-139860000D03*
X66460000Y-141130000D03*
X66460000Y-142400000D03*
X66460000Y-143670000D03*
X66460000Y-144940000D03*
X66460000Y-146210000D03*
%TD*%
D11*
%TO.C,R301*%
X61680000Y-79235000D03*
X61680000Y-81060000D03*
%TD*%
D14*
%TO.C,R329*%
X94610000Y-156050000D03*
X94610000Y-154225000D03*
%TD*%
D11*
%TO.C,R324*%
X85920000Y-90760000D03*
X85920000Y-92585000D03*
%TD*%
D16*
%TO.C,R316*%
X74740000Y-105270000D03*
X72915000Y-105270000D03*
%TD*%
D11*
%TO.C,R215*%
X122240000Y-48635000D03*
X122240000Y-50460000D03*
%TD*%
D13*
%TO.C,C212*%
X66100000Y-87120000D03*
X66100000Y-93220000D03*
%TD*%
D24*
%TO.C,R334*%
X63630000Y-102220000D03*
X65455000Y-102220000D03*
%TD*%
D11*
%TO.C,R202*%
X87290000Y-51100000D03*
X87290000Y-52925000D03*
%TD*%
D23*
%TO.C,C313*%
X69580000Y-98670000D03*
X67680000Y-98670000D03*
%TD*%
D16*
%TO.C,R317*%
X78760000Y-105270000D03*
X76935000Y-105270000D03*
%TD*%
D11*
%TO.C,R206*%
X114550000Y-48855000D03*
X114550000Y-50680000D03*
%TD*%
D12*
%TO.C,C201*%
X66330000Y-75355000D03*
X66330000Y-73455000D03*
%TD*%
%TO.C,C309*%
X77470000Y-148997500D03*
X77470000Y-150897500D03*
%TD*%
D19*
%TO.C,C231*%
X60600000Y-150927500D03*
X60600000Y-149027500D03*
%TD*%
D14*
%TO.C,R204*%
X110820000Y-159770000D03*
X110820000Y-157945000D03*
%TD*%
D12*
%TO.C,C205*%
X77970000Y-73310000D03*
X77970000Y-75210000D03*
%TD*%
D11*
%TO.C,R223*%
X133410000Y-153477500D03*
X133410000Y-155302500D03*
%TD*%
D12*
%TO.C,C202*%
X69250000Y-73495000D03*
X69250000Y-75395000D03*
%TD*%
%TO.C,C217*%
X137140000Y-162270000D03*
X137140000Y-164170000D03*
%TD*%
D11*
%TO.C,R306*%
X63970000Y-149045000D03*
X63970000Y-150870000D03*
%TD*%
%TO.C,R308*%
X84730000Y-149015000D03*
X84730000Y-150840000D03*
%TD*%
D14*
%TO.C,R310*%
X115410000Y-151125000D03*
X115410000Y-149300000D03*
%TD*%
D32*
%TO.C,Y201*%
X147360000Y-104410000D03*
X147360000Y-109610000D03*
%TD*%
D11*
%TO.C,R307*%
X73960000Y-149085000D03*
X73960000Y-150910000D03*
%TD*%
M02*
